<svg width="290" height="173" viewBox="0 0 290 183" fill="none" xmlns="http://www.w3.org/2000/svg">
<path d="M257.616 140.347C257.616 140.347 256.256 141.821 254.438 143.586C252.756 145.22 252.235 145.69 250.674 147.207C249.762 148.094 250.513 148.907 252.25 148.841C253.778 148.782 257.235 148.043 259.171 147.35C260.545 146.858 263.064 145.471 264.351 144.66C265.638 143.848 265.889 142.722 265.889 142.722V139.997L257.616 140.347Z" fill="#212034"/>
<path d="M279.237 143.741C279.237 143.741 278.923 146.534 278.728 150.043C278.535 153.551 279.032 156.65 280.109 157.036C281.186 157.422 284.252 157.373 285.996 152.501C287.741 147.629 286.701 142.904 286.701 142.904L279.237 143.741Z" fill="#212034"/>
<path d="M283.268 94.9734C283.911 84.9756 277.837 80.4716 277.837 80.4716C278.276 77.1027 261.022 80.3356 261.022 80.3356C261.022 80.3356 259.229 99.9313 257.81 109.469C256.196 120.309 256.903 139.661 256.903 139.661C256.903 139.661 257.107 142.018 261.16 142.002C263.167 141.994 265.363 141.091 266.669 140.45C267.386 140.098 268.305 139.12 267.835 137.871C267.403 136.724 268.452 135.737 267.835 133.709C267.197 131.613 266.761 129.968 266.667 127.694C266.445 122.44 267.156 116.877 267.156 116.877L270.759 99.0583C270.759 99.0583 272.797 115.243 273.659 120.484C274.486 125.506 274.851 128.878 275.857 133.162C276.288 134.99 277.367 135.528 277.778 137.871C278.054 139.438 277.507 140.625 277.417 143.418C277.34 145.732 283.097 146.597 286.701 144.804C290.303 143.009 290.387 141.899 289.595 141.004C288.753 140.053 288.482 140.45 288.955 135.97C289.427 131.484 286.801 124.788 284.053 118.627C283.666 110.743 282.973 99.5663 283.268 94.9734Z" fill="#EAB14D"/>
<path d="M257.23 80.0675C259.122 76.9555 260.679 74.3396 260.679 74.3396C261.129 73.8056 260.872 72.6766 261.327 72.0606C263.06 70.0767 263.589 60.8528 263.589 60.8528L266.78 51.165C266.78 51.165 263.201 48.606 260.062 53.6589C257.071 58.4729 253.343 72.5016 253.343 72.5016C253.343 72.5016 255.836 80.5905 257.23 80.0675Z" fill="#EAB14D"/>
<path d="M258.049 92.987C259.146 94.8429 261.483 96.2269 263.834 97.0769C264.826 96.0349 266.201 92.714 266.201 92.714C266.201 92.714 267.014 96.8329 267.732 98.5489C273.398 99.4489 280.216 98.0729 284.193 96.0149C284.763 91.883 282.786 80.9872 282.662 78.9372C282.245 72.0523 283.613 61.2835 283.37 59.4736C282.965 56.4466 276.076 53.1677 276.076 53.1677C276.076 53.1677 271.189 49.3987 266.126 51.3837C266.126 51.3837 260.711 55.7406 260.065 61.8975C259.746 64.9535 260.019 74.2793 260.047 81.0292C260.051 81.9041 258.171 91.597 258.049 92.987Z" fill="#E49542"/>
<path d="M269.783 57.0679C269.783 57.0679 267.723 60.1408 267.829 61.6778C267.936 63.2158 268.054 71.8696 267.829 74.7756C267.711 76.3235 266.926 81.2954 266.857 85.6374C266.779 90.4613 266.201 92.7142 266.201 92.7142C266.201 92.7142 265.947 89.0883 265.889 87.2593C265.833 85.4314 266.574 77.5975 266.779 75.4785C266.985 73.3586 266.886 62.9358 266.779 61.6778C266.674 60.4208 268.487 56.8369 268.487 56.8369L269.783 57.0679Z" fill="#EAB14D"/>
<path d="M268.058 51.1932L267.799 54.9609C267.799 54.9609 267.58 56.4038 268.567 57.8347C270.286 57.3008 275.678 54.004 275.678 54.004L274.348 46.6416L268.058 51.1932Z" fill="#F89D8E"/>
<path d="M275.085 38.5484C273.296 36.2745 268.148 34.3597 264.795 39.3033C261.279 44.4869 264.602 52.9623 267.682 52.4673C269.407 52.1903 273.291 50.6244 274.993 47.8566C276.908 44.7409 276.477 40.3142 275.085 38.5484Z" fill="#FABAAC"/>
<path d="M263.475 41.0372C264.189 42.1721 265.302 43.503 268.17 43.653C270.516 43.777 272.37 43.0781 272.37 43.0781L272.169 46.2008C272.169 46.2008 272.64 46.2188 273.03 46.0828C273.339 44.8969 273.849 44.6199 274.431 45.1199C275.088 45.6859 274.993 47.8567 274.993 47.8567C274.993 47.8567 277.475 45.7199 277.464 42.1461C277.458 39.9193 275.504 35.0937 271.408 34.5887C267.311 34.0827 264.395 36.2166 263.395 38.3954C262.893 39.4873 263.153 40.5243 263.475 41.0372Z" fill="#212034"/>
<path d="M271.033 83.4145C271.033 83.4145 270.36 83.8955 269.643 84.6524C268.924 85.4094 266.486 85.9653 265.627 85.5813C264.766 85.1974 262.857 82.1226 262.807 81.3727C262.758 80.6237 262.659 80.0278 263.978 79.9138C263.978 78.2279 269.43 78.9378 269.43 78.9378C269.43 78.9378 270.824 79.1958 271.033 83.4145Z" fill="#FABAAC"/>
<path d="M256.805 83.2415L267.197 89.303L258.381 74.4121L247.989 68.3496L256.805 83.2415Z" fill="#BC9288"/>
<path d="M267.197 89.303L268.162 88.715L259.346 73.8232L258.381 74.4121L267.197 89.303Z" fill="#DEBEB1"/>
<path d="M247.989 68.349L248.953 67.761L259.345 73.8226L258.381 74.4115L247.989 68.349Z" fill="#F0D6CD"/>
<path d="M263.814 79.9318L265.653 72.9364C265.724 72.6634 266.007 72.4984 266.281 72.5704C266.555 72.6414 266.721 72.9234 266.649 73.1964L264.846 80.0529C264.576 79.9889 264.014 79.9418 263.814 79.9318Z" fill="#EB5746"/>
<path d="M252.06 75.0364C254.015 74.5424 254.966 77.5272 255.839 79.621C256.619 81.4949 254.568 81.9278 252.37 80.107C250.101 78.2281 249.81 75.6053 252.06 75.0364Z" fill="#FABAAC"/>
<path d="M288.631 70.7469C287.118 63.8891 285.483 58.2302 281.389 56.4942C279.017 55.4872 277.496 62.1151 277.915 65.962C278.401 70.4319 279.855 71.7699 281.717 74.9818C279.433 75.2618 273.2 76.3028 268.937 78.1268C270.362 80.0768 271.172 85.1017 271.172 85.1017C271.172 85.1017 285.135 83.0297 288.082 81.5637C290.149 80.5348 289.705 75.6218 288.631 70.7469Z" fill="#EAB14D"/>
<path d="M275.101 50.806C275.101 50.806 275.901 51.128 276.842 52.2379C277.262 52.7349 277.915 54.1518 277.915 54.1518L270.911 60.2793L268.567 57.8345L275.101 50.806Z" fill="#EAB14D"/>
<path d="M267.835 53.224C267.796 55.2499 268.567 57.8346 268.567 57.8346L265.886 58.5326C265.886 58.5326 265.242 54.5519 267.835 53.224Z" fill="#EAB14D"/>
<path d="M138.64 152.578L165.208 137.077C165.208 137.077 160.556 128.065 149.192 131.205C137.83 134.345 131.376 138.284 131.376 138.284L138.64 152.578Z" fill="#CF3633"/>
<path d="M149.275 148.498C149.285 159.063 155.746 171.328 163.702 175.896C171.661 180.462 178.104 175.6 178.093 165.036C178.083 154.472 171.623 142.205 163.665 137.638C155.707 133.07 149.264 137.934 149.275 148.498Z" fill="#212034"/>
<path d="M172.69 176.864L163.367 182.243L145.875 141.814L155.575 136.295L172.69 176.864Z" fill="#212034"/>
<path d="M139.928 153.887C139.939 164.451 146.399 176.718 154.356 181.283C162.314 185.851 168.757 180.988 168.746 170.424C168.736 159.859 162.276 147.593 154.318 143.026C146.36 138.459 139.918 143.321 139.928 153.887Z" fill="#302D47"/>
<path d="M143.979 156.212C143.987 163.805 148.631 172.622 154.351 175.904C160.071 179.188 164.702 175.692 164.695 168.099C164.687 160.504 160.043 151.688 154.324 148.405C148.604 145.122 143.972 148.617 143.979 156.212Z" fill="white"/>
<path d="M148.518 159.118C148.521 162.997 150.893 167.5 153.815 169.177C156.737 170.854 159.103 169.068 159.099 165.19C159.095 161.311 156.723 156.807 153.802 155.131C150.88 153.454 148.514 155.239 148.518 159.118Z" fill="#302D47"/>
<path d="M149.401 159.625C149.404 162.856 151.38 166.607 153.814 168.004C156.248 169.401 158.22 167.914 158.216 164.683C158.213 161.451 156.237 157.699 153.803 156.303C151.368 154.906 149.398 156.393 149.401 159.625Z" fill="#B98E83"/>
<path d="M28.2619 89.1293L54.8304 73.6294C54.8304 73.6294 50.178 64.6151 38.8154 67.7559C27.4519 70.8967 20.9987 74.8364 20.9987 74.8364L28.2619 89.1293Z" fill="#CF3633"/>
<path d="M6.19855 33.7053C6.19855 33.7053 38.0529 8.05082 63.3185 2.39592C73.8308 0.0429611 85.1412 5.23384 93.906 5.97183L103.333 15.1147L35.5093 56.6539L7.72829 41.9152C5.13758 40.4142 3.61187 35.2133 6.19855 33.7053Z" fill="#F36762"/>
<path d="M219.274 83.0696C216.29 86.6976 210.262 92.2284 198.351 100.557C169.586 120.672 149.181 119.171 149.181 119.171L133.243 91.2365C149.904 83.5546 174.993 72.5088 185.668 70.4928C196.348 68.4769 210.49 76.8177 219.274 83.0696Z" fill="#7A80B7"/>
<path d="M194.92 45.1529L221.622 76.6163C221.622 76.6163 223.498 77.9363 219.274 83.0702C210.49 76.8183 196.348 68.4775 185.668 70.4934C174.993 72.5094 149.904 83.5552 133.243 91.2371L128.88 83.5882L194.92 45.1529Z" fill="#A7A9C9"/>
<path d="M194.92 45.1522C194.92 45.1522 192.008 49.3911 174.579 61.4639C158.339 72.7127 128.88 83.5875 128.88 83.5875C128.88 83.5875 107.803 67.6938 91.1012 58.456C74.3977 49.2181 45.2435 37.0773 45.2435 37.0773L93.9058 5.97189C93.9058 5.97189 106.758 -6.61987 128.801 4.83392C137.079 9.13484 152.03 18.2997 173.015 31.0075C180.853 35.7554 188.7 40.9233 194.92 45.1522Z" fill="#F57877"/>
<path d="M192.87 48.6977C192.87 48.6977 178.263 39.8279 157.444 28.0131C136.625 16.1993 109.52 0.620602 109.52 0.620602L106.993 1.41158C106.993 1.41158 118.248 8.14746 128.811 13.9594C137.385 18.6773 191.883 50.4387 191.883 50.4387L192.87 48.6977Z" fill="#EB5746"/>
<path d="M141.201 78.7219C141.201 78.7219 126.594 69.8521 105.775 58.0373C84.9562 46.2235 57.8517 30.6458 57.8517 30.6458L55.3243 31.4358C55.3243 31.4358 66.5784 38.1716 77.142 43.9835C85.7161 48.7015 140.214 80.4629 140.214 80.4629L141.201 78.7219Z" fill="#EB5746"/>
<path d="M52.0271 33.6612L37.9774 36.099L23.7833 43.8624C23.7833 43.8624 51.4911 40.2577 54.2815 39.1048C57.072 37.9519 52.0271 33.6612 52.0271 33.6612Z" fill="#F57877"/>
<path d="M38.897 85.0486C38.9081 95.6134 45.3673 107.879 53.3251 112.446C61.2839 117.013 67.726 112.151 67.715 101.586C67.7049 91.0225 61.2457 78.7547 53.2879 74.1888C45.3291 69.6219 38.887 74.4838 38.897 85.0486Z" fill="#212034"/>
<path d="M62.3122 113.416L52.9893 118.795L35.4978 78.3648L45.1961 72.8468L62.3122 113.416Z" fill="#212034"/>
<path d="M29.5509 90.4377C29.561 101.002 36.0211 113.268 43.9789 117.835C51.9367 122.401 58.3789 117.539 58.3678 106.975C58.3588 96.4106 51.8986 84.1438 43.9398 79.5779C35.983 75.011 29.5409 79.8729 29.5509 90.4377Z" fill="#302D47"/>
<path d="M33.6019 92.7623C33.6089 100.356 38.2523 109.173 43.9737 112.456C49.6931 115.738 54.3245 112.243 54.3164 104.65C54.3094 97.0553 49.666 88.2384 43.9456 84.9555C38.2252 81.6735 33.5949 85.1685 33.6019 92.7623Z" fill="white"/>
<path d="M38.1401 95.6689C38.1441 99.5476 40.516 104.051 43.4379 105.728C46.3598 107.405 48.7257 105.62 48.7217 101.741C48.7177 97.8617 46.3458 93.359 43.4239 91.6821C40.5029 90.0053 38.1361 91.7902 38.1401 95.6689Z" fill="#302D47"/>
<path d="M39.0232 96.1759C39.0262 99.4066 41.0026 103.159 43.4367 104.556C45.8708 105.953 47.8412 104.465 47.8382 101.234C47.8352 98.0028 45.8597 94.251 43.4256 92.8542C40.9905 91.4573 39.0202 92.9441 39.0232 96.1759Z" fill="#B98E83"/>
<path d="M6.19824 33.7055C12.4828 34.8475 18.167 43.9803 29.5025 41.8943C32.6623 41.3124 42.3516 37.6424 50.3044 38.2064C58.7691 38.8064 63.4586 41.9453 71.0802 46.4403C77.1238 50.0052 98.6324 62.109 115.082 72.6488C124.295 78.5517 130.671 82.0576 133.069 86.0186C134.734 88.7635 140.604 102.415 146.32 113.065C147.47 115.209 148.914 117.163 150.568 118.916L254.973 99.6823C254.973 99.6823 260.845 105.747 264.624 116.733C266.054 120.888 270.417 131.313 268.364 140.757C266.502 149.321 260.426 158.273 249.371 164.65C211.224 186.661 189.679 181.628 173.802 172.806C173.743 158.798 165.184 142.577 154.643 136.527C144.114 130.485 135.589 136.874 135.536 150.792C113.122 137.9 84.4954 121.437 61.4843 108.205C61.0155 104.517 59.0361 92.5924 56.9874 89.1005C52.879 82.0976 42.5172 72.3998 37.914 72.8538C23.2039 74.3038 29.2967 89.6965 26.7472 88.2305C23.1577 86.1676 21.1292 85.0006 21.1292 85.0006C9.58292 78.3817 3.70389 65.2349 1.80981 56.9401C0.762878 52.3512 1.09512 37.0584 6.19824 33.7055Z" fill="#EB5746"/>
<path d="M25.048 84.8024C25.1072 69.2806 34.6138 62.1558 46.3568 68.8937C51.5091 71.8506 56.2358 76.9875 59.9276 83.1404C61.902 84.3534 63.9607 85.6374 66.0787 86.9933C77.2023 94.1172 125.123 121.362 142.795 131.381C146.507 129.34 151.302 129.564 156.551 132.576C168.307 139.322 177.852 157.413 177.918 173.034C177.369 172.73 176.825 172.421 176.288 172.108C175.992 171.936 175.173 171.463 173.939 170.752C173.941 170.6 171.545 169.705 171.545 169.551C171.533 156.622 164.383 142.454 154.644 136.866C152.555 135.666 150.638 135.025 148.898 134.837C149.182 134.997 149.377 135.107 149.377 135.107L143.177 136.403C140.304 138.742 138.684 143.481 138.69 150.067C138.69 150.203 138.704 150.341 138.706 150.476C137.572 149.824 136.407 149.153 135.243 148.484C135.264 142.895 136.525 138.415 138.661 135.259C138.661 135.259 103.029 115.428 91.1506 108.817C84.6301 105.189 65.7695 96.5501 65.7695 96.5501C66.8154 98.9461 67.4046 103.211 67.7228 109.352C67.1737 109.047 66.6307 108.738 66.0927 108.425C65.7966 108.254 64.9775 107.781 63.7429 107.069C63.7449 106.918 61.3499 106.023 61.3499 105.869C61.3449 100.732 60.1986 95.4062 58.2252 90.4933L57.4664 90.0713L51.482 81.3764L43.4057 73.7446C42.0968 72.9096 44.6093 74.1765 49.2145 76.7955C47.7159 75.3765 46.1239 74.1455 44.4487 73.1836C34.7102 67.5957 27.4891 73.2856 27.5022 86.2133C27.5022 86.3483 28.5079 86.6583 28.509 86.7943C27.3767 86.1423 26.2113 85.4723 25.048 84.8024Z" fill="#F36762"/>
<path d="M154.643 136.527C165.184 142.577 173.743 158.799 173.802 172.806C173.309 172.531 172.821 172.255 172.34 171.975C172.075 171.82 171.34 171.397 170.233 170.759C170.235 170.622 170.248 170.496 170.248 170.358C170.237 158.767 163.148 145.307 154.417 140.296C145.685 135.285 138.615 140.62 138.626 152.213C138.626 152.334 138.638 152.457 138.64 152.579C137.625 151.994 136.58 151.393 135.536 150.793C135.589 136.874 144.114 130.485 154.643 136.527Z" fill="#E1453B"/>
<path d="M87.5963 9.92422C87.5963 9.92422 77.6882 3.27675 66.2253 5.89555C54.7613 8.51435 41.9544 17.6026 41.9544 17.6026L61.9452 25.618L87.5963 9.92422Z" fill="#F57877"/>
<path d="M44.2648 73.0786C54.8073 79.1285 63.3654 95.3492 63.4246 109.357C62.9307 109.083 62.4439 108.806 61.9621 108.525C61.6971 108.371 60.9624 107.947 59.8552 107.309C59.8572 107.173 59.8713 107.048 59.8713 106.91C59.8592 95.3172 52.7707 81.8574 44.039 76.8465C35.3073 71.8356 28.2378 77.1715 28.2489 88.7633C28.2489 88.8843 28.2609 89.0073 28.2619 89.1293C27.2481 88.5453 26.2022 87.9433 25.1583 87.3433C25.2115 73.4256 33.7364 67.0367 44.2648 73.0786Z" fill="#E1453B"/>
<path d="M221.622 76.6163C221.622 76.6163 234.722 85.8311 252.871 97.9599C261.813 103.935 264.213 119.704 243.162 133.421C218.572 149.444 200.667 148.8 185.04 139.731C168.239 129.982 149.181 119.172 149.181 119.172C149.181 119.172 162.104 119.101 187.884 103.872C208.959 91.421 221.622 76.6163 221.622 76.6163Z" fill="#302D47"/>
<path d="M137.693 117.274C139.726 118.437 142.082 116.367 141.164 114.219C136.837 104.094 128.621 85.7117 125.092 83.4388C120.501 80.4828 104.554 70.999 85.097 59.5092C70.7111 51.0133 57.9463 43.6215 51.9268 45.2934C49.59 45.9424 43.2051 50.2843 38.5427 53.6003C36.0222 55.3933 36.219 59.1822 38.905 60.7192L137.693 117.274Z" fill="#302D47"/>
<path d="M110.428 0.0306816C110.428 0.0306816 90.9227 10.6755 82.1198 16.4424C69.0388 25.0093 51.4941 34.5781 51.4941 34.5781L31.5906 39.693C37.0048 36.4171 31.5906 39.693 42.0648 33.8261C56.9997 25.4622 73.2907 15.1384 75.9447 13.5024C79.5863 11.2565 86.6397 7.57256 90.4159 5.6446C98.1127 1.71267 108.032 -0.275314 110.428 0.0306816Z" fill="#3E3C5B"/>
<path d="M219.037 158.699C216.946 154.734 213.261 151.75 208.794 152.269C205.409 152.662 204.956 152.129 199.449 151.582C193.361 150.979 187.717 148.369 184.719 146.594C180.843 144.3 180.497 148.235 180.92 149.722C182.497 155.274 186.936 159.441 192.619 161.284C206.094 165.654 219.037 158.699 219.037 158.699Z" fill="white"/>
<path d="M225.058 145.186C221.416 145.953 217.676 146.84 215.207 147.382L214.561 146.65C214.561 146.65 231.899 142.766 243.932 134.496C251.79 129.096 255.487 123.007 255.487 123.007L255.912 124.554C255.088 126.034 253.711 128.209 251.501 130.984C246.631 137.094 231.053 143.923 225.058 145.186Z" fill="#302D47"/>
<path d="M226.173 148.378C223.273 148.989 220.169 149.704 217.74 150.251L216.273 148.59C218.962 148.029 222.59 147.229 226.06 146.323C232.719 144.586 242.282 139.532 248.56 135.299C252.63 132.556 255.1 128.576 256.339 126.109L256.998 128.511C256.07 129.991 254.691 131.889 252.616 134.177C247.367 139.966 232.169 147.116 226.173 148.378Z" fill="#302D47"/>
<path d="M251.006 142.207C254.531 139.831 256.861 136.522 258.227 134.075C258.249 136.435 257.284 138.734 255.469 140.353C252.993 142.56 249.453 145.354 245.326 147.554C237.339 151.811 231.919 154.176 228.503 155.477C226.346 156.298 223.974 155.984 222.098 154.77C224.12 154.318 226.344 153.795 228.507 153.231C235.166 151.493 244.729 146.441 251.006 142.207Z" fill="#302D47"/>
<path d="M249.676 138.493C253.212 136.108 255.838 132.706 257.459 130.189L257.936 131.927L257.984 132.162C257.073 133.661 255.781 135.588 253.947 137.891C249.078 144.001 233.5 150.83 227.505 152.093C225.237 152.57 222.821 153.111 220.696 153.588L220.602 153.495L218.823 151.48C221.297 150.948 224.293 150.268 227.176 149.516C233.835 147.778 243.398 142.725 249.676 138.493Z" fill="#302D47"/>
<path d="M253.947 137.892C255.781 135.589 257.073 133.662 257.984 132.163C258.139 132.797 258.221 133.438 258.227 134.075C256.861 136.523 254.531 139.832 251.007 142.207C244.729 146.441 235.166 151.494 228.507 153.232C226.344 153.795 224.12 154.318 222.098 154.77C221.59 154.44 221.117 154.047 220.696 153.588C222.821 153.112 225.237 152.571 227.505 152.094C233.5 150.831 249.078 144.002 253.947 137.892Z" fill="#3E3C5B"/>
<path d="M226.173 148.379C232.169 147.116 247.366 139.966 252.616 134.177C254.691 131.889 256.07 129.991 256.998 128.511L257.459 130.19C255.838 132.707 253.212 136.109 249.675 138.493C243.398 142.726 233.835 147.779 227.176 149.517C224.293 150.269 221.297 150.949 218.823 151.48L217.739 150.252C220.168 149.705 223.273 148.99 226.173 148.379Z" fill="#3E3C5B"/>
<path d="M248.56 135.3C242.282 139.532 232.719 144.586 226.06 146.323C222.59 147.229 218.961 148.029 216.273 148.591L215.207 147.382C217.675 146.84 221.415 145.953 225.058 145.186C231.053 143.923 246.631 137.095 251.501 130.984C253.71 128.209 255.088 126.034 255.912 124.555L256.339 126.109C255.1 128.576 252.63 132.556 248.56 135.3Z" fill="#3E3C5B"/>
<path d="M260.838 107.766C260.838 107.766 261.272 113.188 261.278 119.087C261.282 123.487 263.166 129.483 263.166 129.483C263.166 129.483 265.373 121.163 265.069 118.168C264.458 112.141 260.838 107.766 260.838 107.766Z" fill="white"/>
<path d="M260.882 151.057C260.882 151.057 260.865 140.206 254.064 144.905C247.725 149.287 242.446 152.488 238.107 154.528C233.055 156.905 229.428 158.621 228.004 161.243C226.559 163.905 226.504 170.892 226.504 170.892C226.504 170.892 231.293 170.646 247.563 161.483C259.761 154.616 260.882 151.057 260.882 151.057Z" fill="#302D47"/>
<path d="M255.775 146.571L255.781 153.065C255.781 153.065 250.774 156.593 246.749 159.197C244.129 160.894 234.11 165.458 234.11 165.458L234.103 159.214C234.103 159.214 241.205 156.019 246.743 152.827C251.976 149.814 255.775 146.571 255.775 146.571Z" fill="white"/>
<path d="M268.878 136.652C268.878 136.652 269.815 146.026 265.131 152.817C260.448 159.606 248.596 171.74 227.53 177.763C203.959 184.501 188.912 182.364 180.188 178.461C171.462 174.558 170.459 174.841 170.232 170.759C170.007 166.676 173.799 169.466 173.799 169.466C173.799 169.466 177.642 175.899 195.94 177.012C205.634 177.601 218.12 175.842 228.525 172.752C237.76 170.009 246.853 164.402 255.786 157.915C268.372 148.776 268.878 136.652 268.878 136.652Z" fill="#E1453B"/>
<path d="M213.25 167.594C214.264 167.611 214.866 168.691 214.383 169.58C213.822 170.616 213.021 171.859 212.034 172.768C209.016 175.547 195.23 175.743 193.685 174.315C192.14 172.886 193.173 168.409 196.847 168.536C201.928 168.711 208.884 167.524 213.25 167.594Z" fill="#302D47"/>
<path d="M267.987 127.614C267.987 127.614 266.964 132.307 266.268 134.132C265.572 135.957 268.878 136.651 268.878 136.651C268.878 136.651 268.865 131.102 267.987 127.614Z" fill="#302D47"/>
<path d="M238.571 143.926C238.981 145.201 241.369 145.301 243.904 144.147C246.439 142.993 248.162 141.024 247.752 139.747C247.342 138.471 244.954 138.372 242.419 139.525C239.884 140.68 238.161 142.65 238.571 143.926Z" fill="white"/>
<path d="M224.305 78.495C224.305 78.495 222.657 82.276 213.54 89.3949C204.734 96.2707 185.564 109.765 172.989 114.785C160.415 119.805 152.349 122.956 149.181 119.171C146.013 115.386 129.944 82.969 129.944 82.969L131.775 82.215C131.775 82.215 148.892 115.383 150.988 117.207C153.084 119.03 169.021 113.017 197.298 94.6648C208.031 87.6979 221.622 76.6161 221.622 76.6161L224.305 78.495Z" fill="#302D47"/>
<path d="M194.92 45.1521L196.19 46.6491C196.19 46.6491 186.236 56.0629 173.694 63.5508C161.151 71.0387 131.149 84.6284 131.149 84.6284L129.944 82.9685C129.944 82.9685 157.835 71.2157 172.834 61.2918C187.832 51.367 194.92 45.1521 194.92 45.1521Z" fill="#302D47"/>
<path d="M61.0819 103.729L136.936 147.309L136.94 151.561L135.82 150.916L60.1393 107.434L61.0819 103.729Z" fill="#E1453B"/>
<path d="M96.4937 68.7556L96.5148 90.6612L128.905 109.293C128.905 109.293 128.976 100.97 128.894 97.584C128.845 95.5891 128.226 92.8211 126.879 90.0042C125.824 87.7962 123.261 84.7963 120.123 82.8803C111.437 77.5754 96.4937 68.7556 96.4937 68.7556Z" fill="#7A80B7"/>
<path d="M92.2596 66.7999L92.2817 88.8015L58.0887 68.7929C58.0887 68.7929 58.0515 60.438 58.5022 57.9241C58.8967 55.7201 60.0821 49.1092 60.0821 49.1092L92.2596 66.7999Z" fill="#7A80B7"/>
<path d="M56.9463 48.1943C56.9463 48.1943 55.6956 54.4038 55.3503 56.6347C55.008 58.8375 54.8243 67.0789 54.8243 67.0789C54.8243 67.0789 47.0572 62.4152 45.2675 61.5043C43.4778 60.5934 42.0354 57.9876 46.743 54.4628C50.2331 51.85 56.9463 48.1943 56.9463 48.1943Z" fill="#7A80B7"/>
<path d="M3.02171 40.4901L3.46237 40.776C4.73615 41.604 5.50403 43.0159 5.50504 44.5308L5.51104 49.5194C5.51506 53.7971 6.22272 58.5497 6.22272 58.5497L1.55824 55.6499C1.55824 55.6499 -0.780529 50.7953 0.272417 45.1087C0.901775 41.707 3.02171 40.4901 3.02171 40.4901Z" fill="#302D47"/>
<path d="M29.5315 71.5159C29.5315 71.5159 15.1035 65.0364 5.00865 57.687C3.38156 56.502 0.809948 53.5963 0.809948 53.5963C0.809948 53.5963 -0.451786 55.4631 4.06413 61.6317C5.59285 63.7225 21.4723 75.1686 26.3335 76.8075C28.5819 71.5519 29.5315 71.5159 29.5315 71.5159Z" fill="#F36762"/>
<path d="M235.584 117.125C235.752 117.125 235.922 117.091 236.088 117.021C236.588 116.806 240.992 114.826 241.235 111.691C241.363 110.038 240.368 108.537 238.276 107.226C231.93 103.252 215.75 96.2745 215.065 95.9795C214.421 95.7045 213.672 95.9955 213.393 96.6404C213.114 97.2824 213.411 98.0283 214.056 98.3063C214.223 98.3783 230.741 105.502 236.922 109.371C237.613 109.804 238.763 110.655 238.699 111.495C238.601 112.77 236.218 114.202 235.078 114.694C234.435 114.974 234.137 115.719 234.417 116.361C234.624 116.839 235.092 117.125 235.584 117.125Z" fill="#DEBEB1"/>
<path d="M227.268 112.284C227.481 112.284 227.695 112.231 227.895 112.12C229.361 111.292 236.676 106.959 236.621 102.965C236.608 102.016 236.194 100.675 234.298 99.6726C228.3 96.5019 217.615 91.6123 217.508 91.5633C216.867 91.2733 216.114 91.5523 215.821 92.1872C215.528 92.8222 215.809 93.5751 216.448 93.8671C216.554 93.9151 227.173 98.7747 233.105 101.911C234.07 102.421 234.075 102.856 234.078 103C234.103 104.835 229.655 108.211 226.64 109.915C226.029 110.259 225.813 111.033 226.16 111.642C226.395 112.052 226.825 112.284 227.268 112.284Z" fill="#DEBEB1"/>
<path d="M215.207 109.478C224.034 113.826 232.264 118.911 238.311 122.914L238.403 122.071L245.649 121.701C245.649 121.701 247.108 125.952 247.083 130.639C247.08 131.082 241.163 135.136 234.481 138.541C228.179 141.751 223.711 143.465 220.508 144.232C219.646 144.074 218.817 143.706 218.1 143.134C215.027 140.68 209.689 136.661 203.277 132.866C190.873 125.525 181.163 120.627 179.828 120.147C181.341 119.206 205.212 104.553 215.207 109.478Z" fill="#B98E83"/>
<path d="M179.828 120.146L179.751 120.195C179.609 120.091 179.646 120.081 179.828 120.146Z" fill="#4D4C6F"/>
<path d="M244.492 125.107C246.213 124.111 246.34 121.68 244.717 120.53C239.23 116.643 227.773 108.911 215.207 102.72C204.881 97.633 179.751 113.437 179.751 113.437C178.566 112.58 189.192 117.771 203.277 126.108C209.689 129.902 215.027 133.921 218.1 136.376C219.847 137.772 222.263 137.949 224.2 136.83L244.492 125.107Z" fill="#DEBEB1"/>
<path d="M215.026 104.749C215.026 104.749 225.668 111.531 230.87 114.318C236.072 117.107 240.831 121.299 240.889 123.64C240.946 125.98 239.208 125.213 234.249 121.476C229.289 117.74 209.574 106.891 209.574 106.891L215.026 104.749Z" fill="#CCA89B"/>
<path d="M208.617 109.088C208.617 109.088 219.258 115.869 224.461 118.657C229.663 121.445 234.422 125.638 234.479 127.978C234.537 130.317 232.799 129.551 227.839 125.815C222.88 122.079 203.165 111.229 203.165 111.229L208.617 109.088Z" fill="#CCA89B"/>
<path d="M200.641 112.898C200.641 112.898 211.282 119.678 216.484 122.467C221.686 125.255 226.446 129.446 226.503 131.787C226.56 134.127 224.823 133.36 219.863 129.624C214.903 125.888 195.188 115.039 195.188 115.039L200.641 112.898Z" fill="#CCA89B"/>
<path d="M200.03 137.247C204.466 137.247 208.309 134.278 208.522 134.111C209.072 133.678 209.164 132.883 208.732 132.333C208.297 131.783 207.493 131.691 206.946 132.12C206.891 132.163 201.298 136.455 196.827 133.876C191.526 130.819 169.677 118.45 169.677 118.45L168.421 120.652C168.421 120.652 190.254 133.015 195.552 136.068C197.037 136.924 198.566 137.247 200.03 137.247Z" fill="#DEBEB1"/>
<path d="M186.418 135C192.142 135 198.666 128.685 199.517 127.837C200.013 127.343 200.013 126.54 199.516 126.046C199.019 125.551 198.214 125.551 197.718 126.046C195.338 128.414 188.321 134.102 184.498 132.006C179.083 129.038 164.51 119.865 164.364 119.773C163.772 119.401 162.988 119.573 162.607 120.168C162.233 120.759 162.408 121.541 163.003 121.916C163.604 122.294 177.789 131.221 183.272 134.227C184.259 134.769 185.325 135 186.418 135Z" fill="#DEBEB1"/>
<path d="M223.399 79.3807C223.399 79.3807 245.757 76.4157 255.509 77.4297C262.25 78.1307 241.661 87.8625 232.534 95.1144C221.663 103.753 209.399 116.559 191.039 119.129C185.565 119.895 154.281 122.071 154.281 122.071L152.122 120.843C152.122 120.843 164.723 117.287 178.717 110.375C195.936 101.87 215.801 88.9475 223.399 79.3807Z" fill="#EB5746"/>
<path d="M223.399 77.8608C223.399 77.8608 245.571 75.6018 255.323 76.6158C262.065 77.3168 241.662 86.3426 232.534 93.5945C221.663 102.232 209.399 115.039 191.039 117.608C185.565 118.375 152.122 120.843 152.122 120.843C152.122 120.843 205.189 100.791 223.399 77.8608Z" fill="#F36762"/>
<path d="M201.829 111.018C201.829 111.018 198.512 114.097 188.972 115.047C179.433 115.998 163.684 115.849 163.684 115.849L173.461 111.545L201.829 111.018Z" fill="#F57877"/>
<path d="M244.065 82.4722C244.065 82.4722 246.495 78.7145 239.462 78.9574C232.429 79.1994 221.117 80.4633 221.117 80.4633L216.978 84.635L244.065 82.4722Z" fill="#F57877"/>
</svg>
