<svg width="110" height="173" viewBox="0 0 110 146" fill="none" xmlns="http://www.w3.org/2000/svg">
<path d="M108.255 111.528L108.447 111.416L108.255 111.528Z" fill="#EB5746"/>
<path d="M70.035 11.0462L104.66 30.9574C107.597 32.6477 110 37.2197 110 41.1198V103.495L92.1105 88.2641L76.4762 95.1415L70.035 91.4379C67.0985 89.7476 64.6945 85.1755 64.6945 81.2755V15.0652C64.6945 11.1677 67.0985 9.35596 70.035 11.0462Z" fill="#F36762"/>
<path d="M108.255 111.528L83.1655 125.843L68.6775 98.5714L76.476 95.1417L104.659 111.349C106.047 112.148 107.304 112.14 108.255 111.528Z" fill="#D0322D"/>
<path d="M110 103.495V107.328C110 109.266 109.405 110.682 108.448 111.416L108.256 111.528C107.304 112.14 106.047 112.148 104.66 111.349L76.4762 95.1417L92.1105 88.2642L110 103.495Z" fill="#D0322D"/>
<path d="M45.5968 14.5172L69.8971 0.586661L72.352 2.36737L48.6072 15.7966L45.5968 14.5172Z" fill="#EB5746"/>
<path d="M66.7757 10.6641L41.2884 25.1839L55.9507 47.6279L80.5715 31.6892L66.7757 10.6641Z" fill="#F36762"/>
<path d="M45.0478 105.669L79.6723 125.582C82.6088 127.27 85.0107 125.461 85.0107 121.561V55.353C85.0107 51.453 82.6088 46.8784 79.6723 45.1907L45.0478 25.277C42.1095 23.5893 39.7073 25.3985 39.7073 29.2985V95.5062C39.7073 99.4063 42.1095 103.981 45.0478 105.669Z" fill="#E1453B"/>
<path d="M40.2772 26.4451L44.215 16.1613C44.953 14.2358 46.6901 13.7112 48.6069 14.8354L53.4354 17.6681L54.8677 34.8345L40.2772 26.4451Z" fill="#E1453B"/>
<path d="M84.8586 53.6138C84.8586 48.8893 81.5553 39.1663 81.5553 39.1663C80.5265 35.2973 78.1082 31.7798 75.4353 30.2627L68.1913 26.1532L66.8584 41.7301C66.8584 41.7301 84.8586 58.9922 84.8586 53.6138Z" fill="#E1453B"/>
<path d="M65.0571 12.1939L68.9949 1.91275C69.7318 -0.0153084 71.469 -0.540001 73.3857 0.586853L78.2143 3.41689L79.6476 20.5859L65.0571 12.1939Z" fill="#EB5746"/>
<path d="M109.928 39.9651C109.928 35.2405 106.335 24.9154 106.335 24.9154C105.306 21.0464 102.887 17.5288 100.214 16.0142L92.9706 11.9049L84.8581 26.1533C84.8581 26.1533 109.928 45.3409 109.928 39.9651Z" fill="#F36762"/>
<path d="M53.4361 17.6677L78.2148 3.41663L73.3863 0.586592L48.6075 14.8351L53.4361 17.6677Z" fill="#F57877"/>
<path d="M78.214 3.4168L79.2944 16.3705L54.5258 30.7275L53.4352 17.6679L78.214 3.4168Z" fill="#EB5746"/>
<path d="M68.1912 26.1528L92.971 11.9044L100.214 16.0137L75.4352 30.2622L68.1912 26.1528Z" fill="#F57877"/>
<path d="M85.0113 55.3527L110 41.1198V107.328L85.0113 121.561V55.3527Z" fill="#EB5746"/>
<path d="M64.946 20.8913L71.1541 24.4502L81.674 18.3998L69.6834 11.4836L64.946 20.8913Z" fill="#D0322D"/>
<path d="M70.9972 14.7292C70.9271 17.4016 69.2294 20.2266 67.2042 21.0381C65.1782 21.8497 63.5921 20.3403 63.6598 17.6679C63.7299 14.9955 65.4286 12.168 67.4536 11.3564C69.4808 10.5449 71.066 12.0543 70.9972 14.7292Z" fill="#D0322D"/>
<path d="M44.7699 42.2936C45.8319 42.092 47.2053 43.3688 47.8216 45.1314L61.1451 83.2971L55.0394 77.6215L43.9549 45.8654C43.3386 44.1027 43.7055 42.4952 44.7699 42.2936Z" fill="#D0322D"/>
<path d="M76.9474 60.682C75.8812 59.2631 74.5089 58.9711 73.9017 60.0359L60.7476 83.0692L66.8401 84.364L77.7858 65.1972C78.3937 64.135 78.0157 62.1035 76.9474 60.682Z" fill="#D0322D"/>
<path d="M44.9118 94.2345C45.9803 95.6534 47.3506 95.9454 47.9578 94.8806L61.1129 71.8473L55.0191 70.5525L44.0748 89.7193C43.4666 90.7816 43.8436 92.813 44.9118 94.2345Z" fill="#D0322D"/>
<path d="M77.092 112.624C76.0287 112.825 74.6553 111.548 74.039 109.786L60.7158 71.6227L66.8215 77.2983L77.906 109.052C78.5222 110.814 78.1561 112.422 77.092 112.624Z" fill="#D0322D"/>
<path d="M54.2768 80.8075L67.0549 88.1113C68.4872 88.928 69.6538 88.0442 69.6475 86.1471L69.6234 77.2383C69.6182 75.3412 68.4436 73.1211 67.0123 72.3018L54.2332 65.0005C52.803 64.1812 51.6364 65.0652 51.6405 66.9622L51.6649 75.871C51.6698 77.7681 52.8458 79.9907 54.2768 80.8075Z" fill="#D0322D"/>
<path d="M55.98 79.0687L65.3362 84.4136C66.2321 84.9253 66.962 84.3722 66.9589 83.1859L66.9428 77.1355C66.9387 75.9466 66.2038 74.5562 65.3089 74.0444L55.9505 68.6971C55.0545 68.1854 54.3249 68.7384 54.3287 69.9247L54.3451 75.9777C54.3482 77.164 55.0838 78.5544 55.98 79.0687Z" fill="#E1453B"/>
<path d="M52.2305 50.5511L69.2637 60.3464V57.4233L52.2305 47.628V50.5511Z" fill="#D0322D"/>
<path d="M52.2305 100.06L69.2637 109.855V106.93L52.2305 97.1344V100.06Z" fill="#D0322D"/>
<path d="M52.2305 94.1878L69.2637 103.983V101.057L52.2305 91.2622V94.1878Z" fill="#D0322D"/>
<path d="M52.2305 44.1907L69.2637 53.9861V51.063L52.2305 41.2676V44.1907Z" fill="#D0322D"/>
<path d="M89.6855 90.1541L105.442 81.0901V52.4484L89.6855 61.5098V90.1541Z" fill="#302D47"/>
<path d="M95.76 83.509L102.512 79.6245V67.3505L95.76 71.2351V83.509Z" fill="white"/>
<path d="M91.8881 64.6575L103.123 58.1497V56.0356L91.8881 62.546V64.6575Z" fill="#DEBEB1"/>
<path d="M91.8881 69.0068L103.123 62.4964V60.3849L91.8881 66.8927V69.0068Z" fill="#DEBEB1"/>
<path d="M87.7096 31.2242C86.4931 34.902 88.4423 38.9571 92.0628 40.2804C95.6833 41.6037 99.6048 39.6963 100.82 36.0185C102.036 32.3408 100.087 28.2882 96.4668 26.9623C92.8453 25.6391 88.9257 27.5464 87.7096 31.2242Z" fill="#3E3C5B"/>
<path d="M99.7811 38.6235L97.3931 39.9985L90.1219 27.8668L93.0095 26.1454L99.7811 38.6235Z" fill="#3E3C5B"/>
<path d="M89.6506 30.0891C88.4355 33.7642 90.3836 37.8194 94.0051 39.1427C97.6244 40.4685 101.546 38.5586 102.762 34.8834C103.979 31.2056 102.028 27.1505 98.4089 25.8272C94.7874 24.5039 90.867 26.4113 89.6506 30.0891Z" fill="#4D4C6F"/>
<path d="M90.8772 30.2958C89.8676 33.3533 91.4862 36.721 94.4945 37.8194C97.5018 38.9204 100.759 37.3361 101.769 34.2786C102.779 31.2263 101.16 27.8586 98.1515 26.7576C95.1453 25.6592 91.8876 27.2435 90.8772 30.2958Z" fill="#212034"/>
<path d="M102.377 35.6536L98.7497 37.6101L93.1802 27.3081L96.5979 25.406L102.377 35.6536Z" fill="#212034"/>
<path d="M93.6909 28.7378C92.6812 31.7927 94.2998 35.1604 97.3082 36.2588C100.315 37.3598 103.573 35.7755 104.583 32.7206C105.594 29.6657 103.973 26.298 100.965 25.197C97.9579 24.0986 94.7013 25.6829 93.6909 28.7378Z" fill="#302D47"/>
<path d="M102.888 32.5545C103.678 30.169 102.413 27.5405 100.066 26.6824C98.9456 26.2715 97.7861 26.3516 96.7887 26.7935C97.8834 26.1242 99.2497 25.9303 100.564 26.411C102.913 27.2691 104.176 29.8976 103.387 32.2831C102.976 33.5288 102.079 34.4515 100.985 34.9348C101.844 34.4102 102.543 33.6012 102.888 32.5545Z" fill="#BC9288"/>
<path d="M97.7097 35.0463C95.3622 34.1882 94.0973 31.5572 94.8859 29.1743C95.2325 28.1249 95.9298 27.3159 96.7894 26.7939C97.7867 26.3519 98.9462 26.2718 100.066 26.6827C102.414 27.5408 103.679 30.1693 102.889 32.5548C102.543 33.6015 101.845 34.4105 100.986 34.9351C99.9892 35.3771 98.8297 35.4546 97.7097 35.0463Z" fill="#DEBEB1"/>
<path d="M22.305 22.163L22.3031 35.419C22.3031 37.1894 23.3937 39.2674 24.7274 40.035L39.5387 48.551C40.8727 49.3186 41.9643 48.4967 41.9643 46.7237V33.1937C45.3263 36.2926 47.8206 41.4823 47.8206 45.9484L61.7035 53.95C63.9993 55.2733 65.8582 58.8141 65.8582 61.8613V128.669C65.8582 134.243 59.8 137.727 54.9533 134.941L23.49 116.847C19.6028 114.611 17.2078 110.494 17.2078 106.023C17.2068 88.3862 17.2047 44.4959 17.2047 44.4649V28.3426C17.2047 24.2099 19.3283 21.8864 22.305 22.163Z" fill="#BC9288"/>
<path d="M61.7035 53.9832C63.9993 55.3039 65.8582 58.8447 65.8582 61.8944V76.2566L47.6483 84.9019L34.7698 68.0353L60.095 53.0554L61.7035 53.9832Z" fill="#F0D6CD"/>
<path d="M47.8213 45.9816L60.0958 53.0555L34.7706 68.0354L26.4513 57.7128L47.8213 45.9816Z" fill="#DEBEB1"/>
<path d="M61.5405 135.163L44.3493 145.271V137.952L64.8226 126.857L61.5405 135.163Z" fill="#BC9288"/>
<path d="M2.86465 50.5539L23.3984 38.7168L42.627 49.701L22.094 61.5381L2.86465 50.5539Z" fill="#DEBEB1"/>
<path d="M24.7592 43.2701L41.9647 33.193L47.821 45.9812L28.6503 57.0068L24.7592 43.2701Z" fill="#BC9288"/>
<path d="M20.2409 22.4339L2.3281 32.8882L3.3974 50.2458L23.0201 38.9567L19.3561 32.2188L20.2409 22.4339Z" fill="#BC9288"/>
<path d="M22.3057 22.1622L5.10044 32.2392L2.32822 32.8879C2.32822 32.8879 15.6953 25.0207 20.1297 22.4336C20.9364 21.9632 22.3057 22.1622 22.3057 22.1622Z" fill="#F0D6CD"/>
<path d="M5.10049 32.2399L5.09738 45.4959C5.09738 47.2689 6.18898 49.3469 7.52294 50.1119L22.3342 58.6305C23.6679 59.3981 24.7596 58.5736 24.7596 56.8032V43.2706C28.1216 46.3695 30.6172 51.5592 30.6172 56.0279L44.4991 64.0295C46.7946 65.3502 48.6535 68.8936 48.6535 71.9408V138.748C48.6535 144.323 42.5956 147.807 37.7486 145.018L6.28525 126.924C2.39833 124.688 0.00312042 120.571 0.00312042 116.103C0.00208282 98.4631 7.62939e-06 54.5728 7.62939e-06 54.5418V38.4195C7.62939e-06 34.2869 2.12458 31.9633 5.10049 32.2399Z" fill="#CCA89B"/>
<path d="M6.00836 113.758V59.8528L9.65424 61.8222L37.5132 104.198V131.351C37.5132 135.114 35.2143 136.846 32.3803 135.215L11.14 123.525C8.30601 121.897 6.00836 117.524 6.00836 113.758Z" fill="white"/>
<path d="M12.7402 62.535L38.1017 76.8765V102.068L12.7402 62.535Z" fill="#302D47"/>
<path d="M48.6527 76.8407L65.8582 66.6448V126.174L48.6527 136.367V76.8407Z" fill="#DEBEB1"/>
<path d="M41.9652 33.1934C41.9652 33.1934 42.2896 33.4389 42.6139 33.793C42.8804 34.0825 43.1785 34.4443 43.1785 34.4443L25.9904 44.5447L24.7598 43.2705L41.9652 33.1934Z" fill="#F0D6CD"/>
<path d="M13.1662 36.2611L25.0259 43.1152L32.7907 38.7164L16.6377 29.3681L13.1662 36.2611Z" fill="#CCA89B"/>
<path d="M17.5985 31.7459C17.5476 33.705 16.304 35.7751 14.8203 36.3696C13.3353 36.964 12.1737 35.8578 12.2245 33.8988C12.2751 31.9423 13.5188 29.8695 15.0038 29.2751C16.4874 28.6806 17.6491 29.7868 17.5985 31.7459Z" fill="#CCA89B"/>
<path d="M20.798 86.5793C20.798 86.5793 10.3957 103.898 20.798 110.078C31.1993 116.257 20.798 86.5793 20.798 86.5793Z" fill="#302D47"/>
<path d="M9.25023 113.684L34.2693 128.069V124.42L9.25023 110.034V113.684Z" fill="#302D47"/>
<path d="M48.0131 46.8785V57.0486C47.2894 57.1985 46.5172 57.2915 45.6991 57.2915V46.8785H48.0131Z" fill="#302D47"/>
<path d="M44.9589 46.8786V57.2502C44.2788 57.2089 43.6239 57.1236 43.0208 56.9763V46.8786H44.9589Z" fill="#302D47"/>
<path d="M50.6945 46.8782V56.0197C50.1473 56.3634 49.4926 56.6477 48.7547 56.8596V46.8782H50.6945Z" fill="#302D47"/>
<path d="M42.2792 46.8788V56.7517C41.5374 56.5036 40.8936 56.1831 40.3726 55.798V46.8788H42.2792Z" fill="#302D47"/>
<path d="M38.9822 46.8787H39.6319V55.1182C39.2253 54.6323 38.9822 54.0973 38.9822 53.5287V46.8787Z" fill="#302D47"/>
<path d="M52.409 46.8782V53.5282C52.409 54.2363 52.0411 54.8902 51.435 55.4536V46.8782H52.409Z" fill="#302D47"/>
<path d="M51.4356 46.8781V55.4535C51.2187 55.6551 50.9725 55.8438 50.6946 56.0195V46.8781H51.4356Z" fill="#212034"/>
<path d="M48.7543 46.8785V56.8599C48.514 56.9297 48.2709 56.9943 48.0132 57.0486V46.8785H48.7543Z" fill="#212034"/>
<path d="M45.7001 46.8785V57.2915H45.6983C45.4448 57.2915 45.2055 57.2657 44.9593 57.2502V46.8785H45.7001Z" fill="#212034"/>
<path d="M43.0206 46.8779V56.9756C42.7601 56.9136 42.5201 56.8309 42.2788 56.7508V46.8779H43.0206Z" fill="#212034"/>
<path d="M40.3731 46.8782V55.7974C40.0854 55.5854 39.835 55.3605 39.6323 55.1176V46.8782H40.3731Z" fill="#212034"/>
<path d="M38.9824 46.8787C38.9824 48.9592 41.9887 50.6443 45.6974 50.6443C49.405 50.6443 52.4123 48.9592 52.4123 46.8787C52.4123 44.8007 49.405 43.1156 45.6974 43.1156C41.9887 43.1156 38.9824 44.8007 38.9824 46.8787Z" fill="#3E3C5B"/>
<path d="M40.373 46.8784C40.373 48.4963 42.7103 49.8066 45.596 49.8066C48.4795 49.8066 50.8179 48.4963 50.8179 46.8784C50.8179 45.2631 48.4795 43.9527 45.596 43.9527C42.7103 43.9527 40.373 45.2631 40.373 46.8784Z" fill="#302D47"/>
</svg>
