<svg width="150" height="173" viewBox="0 0 150 173" fill="none" xmlns="http://www.w3.org/2000/svg">
<path d="M145.238 80.8577L141.238 79.4819C140.249 79.1425 139.381 78.5223 138.735 77.6982L136.606 74.9666L133.612 71.1719L136.754 66.6198L140.209 68.6426L146.767 73.2046L145.238 80.8577Z" fill="#E49542"/>
<path d="M147.576 92.737C147.616 92.2104 147.504 91.5133 147.283 90.8129C147.086 90.1592 146.79 89.4972 146.445 88.9589L146.347 88.7985C146.076 88.3254 145.924 87.8322 145.924 87.421V85.4584L145.926 62.6715C145.928 62.3656 146.006 62.1132 146.162 61.936L146.409 61.7504C147.662 61.289 148.049 60.0235 147.591 58.2499C147.548 58.0677 147.493 57.8754 147.426 57.6798C147.359 57.4759 147.281 57.2619 147.186 57.0463L147.135 56.9092L146.927 56.4595L146.663 56.1953L147.516 55.6554C147.717 55.6604 147.804 55.754 147.891 55.9011C147.98 56.0583 148.07 56.284 148.134 56.4361C149.089 58.7497 148.904 60.4314 147.676 61.0583L147.161 61.3576C146.99 61.5348 146.892 61.7905 146.89 62.1132L146.888 84.9001V86.8626C146.888 87.2739 147.04 87.7654 147.311 88.2385L147.413 88.3973C148.134 89.5156 148.615 91.1639 148.54 92.1786C148.498 92.7855 148.142 93.3639 147.588 93.6848L146.619 94.2449C147.173 93.9239 147.531 93.3472 147.576 92.737Z" fill="#1A1A1A"/>
<path d="M145.691 58.6409C144.877 58.243 144.094 57.5292 143.452 56.6248L143.36 56.3256L143.98 54.1523C144.033 53.9701 143.833 53.6325 143.653 53.5857C143.106 53.4603 142.608 53.5556 142.211 53.7796L143.091 53.268C143.608 52.9905 144.088 52.9069 144.619 53.0273C144.804 53.0724 144.999 53.4118 144.949 53.5924L144.331 55.7656L144.417 56.0664C144.837 56.7 145.636 57.3386 146.097 57.7214L145.861 58.5606L145.691 58.6409Z" fill="#1A1A1A"/>
<path d="M142.949 89.4821L143.117 89.3952C143.312 89.4888 143.508 89.6092 143.697 89.7446L143.295 91.1053L143.207 91.2742L142.251 91.8275L142.308 91.7389L142.949 89.4821Z" fill="#1A1A1A"/>
<path d="M146.926 56.4593L147.135 56.909L147.168 56.9959C147.281 57.2617 147.359 57.4757 147.426 57.6796C147.492 57.8752 147.547 58.0675 147.591 58.2497C148.049 60.0234 147.662 61.2888 146.479 61.7201C146.314 61.7954 146.23 61.8606 146.162 61.9358C146.006 62.113 145.927 62.3654 145.926 62.6713L145.924 85.4582V87.4208C145.924 87.832 146.076 88.3252 146.347 88.7983L146.445 88.9588C146.79 89.4971 147.086 90.1591 147.283 90.8127C147.504 91.5131 147.616 92.2102 147.576 92.7368C147.531 93.347 147.173 93.9237 146.618 94.2447L146.257 94.4052C145.934 94.5155 145.56 94.5406 145.152 94.4503C144.97 94.4052 144.772 94.0708 144.825 93.8836L145.385 91.9127L145.441 91.7104L145.353 91.4162C144.992 90.9047 144.584 90.465 144.153 90.0939C144.003 89.9685 143.848 89.8498 143.697 89.7445C143.508 89.6091 143.312 89.4887 143.117 89.3951L142.949 89.482L142.308 91.7388L142.251 91.8274L142.14 91.8408L141.883 91.5783L141.82 91.4613L141.637 91.0401C140.628 88.596 140.894 86.8508 142.328 86.3142C142.679 86.1871 142.877 85.8377 142.882 85.3613L142.881 62.5777V60.6152C142.884 60.2073 142.731 59.7208 142.458 59.2443L142.361 59.0755C141.644 57.9672 141.156 56.3122 141.227 55.3008C141.271 54.6923 141.63 54.1173 142.183 53.798C142.608 53.5556 143.105 53.4603 143.653 53.5857C143.833 53.6325 144.033 53.9701 143.98 54.1524L143.36 56.3256L143.452 56.6248C144.094 57.5292 144.877 58.243 145.691 58.6409L145.861 58.5606L146.097 57.7214L146.182 57.4255L146.304 56.9892L146.497 56.3038L146.54 56.2219C146.752 56.2203 146.84 56.3105 146.926 56.4593Z" fill="#B2B2B2"/>
<path d="M148.934 80.1172L146.314 82.3473L145.505 82.2754C144.759 82.2068 144.071 81.8307 143.61 81.2373C143.375 80.9347 143.427 80.9681 143.127 80.7157C142.684 80.3446 142.446 79.7779 142.496 79.2011L142.703 76.8156L142.455 74.0122L143.946 71.8507L146.89 71.1887V68.0375L149.828 71.0717C150.208 74.0155 149.978 77.0246 148.934 80.1172Z" fill="#FABAAC"/>
<path d="M136.759 67.7653L140.208 68.6429L142.881 66.4079V68.5293L145.566 71.8944L143.029 76.8092C142.596 78.093 141.432 77.6383 141.66 76.4849L142.148 73.7984L140.63 73.1983L137.069 72.5547L136.096 70.0455L136.759 67.7653Z" fill="#FABAAC"/>
<path d="M18.8691 69.1305L20.211 69.9095L19.6732 70.8423C19.8097 74.7791 21.6894 76.7651 25.0325 77.3619L26.4044 78.1576L25.4071 79.8945L24.7728 79.5284L23.2744 92.0327L12.2428 100.018L10.8709 99.2227L9.11276 86.5913C12.4542 82.1196 14.3339 77.9537 14.4704 73.8597C14.4704 72.193 15.6358 70.1686 17.0727 69.3344C17.7519 68.9416 18.3663 68.8881 18.8291 69.1121L18.8691 69.1305Z" fill="#2B4D66"/>
<path d="M18.4446 70.1301C19.8814 69.2976 21.0469 69.973 21.0469 71.638C21.185 75.5732 23.0614 77.5608 26.4045 78.1576L24.6481 92.8285L12.2429 100.018L10.4864 87.3871C13.8279 82.9153 15.7059 78.7494 15.8441 74.6554C15.8441 72.9888 17.0095 70.9626 18.4446 70.1301Z" fill="#3071A1"/>
<path d="M17.0362 73.7947C17.0362 74.6974 17.6672 75.0618 18.4447 74.6121C19.2222 74.1608 19.8532 73.0641 19.8532 72.1631C19.8532 71.262 19.2222 70.896 18.4447 71.3473C17.6672 71.7987 17.0362 72.8936 17.0362 73.7947Z" fill="#B54825"/>
<path d="M10.4864 87.3874L10.871 99.2231L31.5823 111.231L28.4523 97.8021L10.4864 87.3874Z" fill="#2B4D66"/>
<path d="M26.4045 78.1579C19.9814 75.4664 15.0133 80.2893 10.4864 87.3873L28.4523 97.802C33.8033 91.2874 39.126 87.0095 44.3704 88.5742L26.4045 78.1579Z" fill="#4D8BBA"/>
<path d="M17.0362 73.7947C17.0362 74.6974 17.6672 75.0618 18.4447 74.6121C19.2222 74.1608 19.8532 73.0641 19.8532 72.1631C19.8532 71.262 19.2222 70.896 18.4447 71.3473C17.6672 71.7987 17.0362 72.8936 17.0362 73.7947Z" fill="#243D7D"/>
<path d="M19.4419 71.2488L17.449 74.7109L36.7884 85.9213L38.7797 82.4592L19.4419 71.2488Z" fill="#2B4D66"/>
<path d="M38.2069 80.3412L39.5488 81.1202L39.0127 82.0531C39.1509 85.9899 41.0289 87.9776 44.3704 88.5744L45.7439 89.3684L44.745 91.1053L44.1123 90.7392L42.6139 103.244L31.5823 111.231L30.2087 110.433L28.4522 97.8021C31.7937 93.332 33.6734 89.1644 33.8099 85.0704C33.8099 83.4054 34.9753 81.3794 36.4105 80.5452C37.0897 80.1523 37.7041 80.0988 38.1686 80.3245L38.2069 80.3412Z" fill="#2B4D66"/>
<path d="M37.7823 81.3409C39.2208 80.5084 40.3863 81.1838 40.3863 82.8488C40.5228 86.7856 42.4025 88.7716 45.7439 89.3684L43.9858 104.039L31.5823 111.231L29.8241 98.5978C33.1656 94.1261 35.0453 89.9602 35.1818 85.8662C35.1818 84.1995 36.3472 82.1734 37.7823 81.3409Z" fill="#3071A2"/>
<path d="M36.3755 85.0069C36.3755 85.9079 37.0049 86.2723 37.784 85.8227C38.5616 85.3713 39.1909 84.2764 39.1909 83.3736C39.1909 82.4726 38.5616 82.1065 37.7824 82.5578C37.0049 83.0092 36.3755 84.1042 36.3755 85.0069Z" fill="#2B4D66"/>
<path d="M20.2028 90.0511L17.7587 92.2671V91.1583L20.2028 90.0511Z" fill="#9D9D9C"/>
<path d="M19.8582 92.7586L20.301 95.5922L19.2172 92.9091L19.8582 92.7586Z" fill="#878787"/>
<path d="M18.7142 92.0949L19.1588 94.9285L18.0732 92.2471L18.7142 92.0949Z" fill="#878787"/>
<path d="M19.1588 94.9285L20.3009 95.5922L19.217 92.9091L18.0732 92.2471L19.1588 94.9285Z" fill="#B2B2B2"/>
<path d="M22.154 91.2076L19.7099 93.4236V92.3164L22.154 91.2076Z" fill="#9D9D9C"/>
<path d="M17.7587 92.2668L19.7099 93.4236V92.3169L17.7587 91.1585V92.2668Z" fill="#C6C6C6"/>
<path d="M19.7099 92.3174L22.154 91.209L20.2028 90.0522L17.7587 91.1589L19.7099 92.3174Z" fill="#EDEDED"/>
<path d="M23.1996 71.8995L30.0656 71.2492C30.0656 71.2492 34.1979 76.0687 34.5542 77.2924C34.714 77.8407 34.7406 79.2667 34.7107 80.1008C34.7107 80.1008 32.22 78.7969 32.1684 78.6164C31.1494 78.8521 30.3436 79.4104 29.9874 80.6542C29.6477 81.9865 30.4702 82.2841 31.3959 82.7956L33.3488 83.9291C33.6285 84.8435 29.0201 86.1106 28.2792 86.4784C25.6753 85.2898 24.365 84.4506 21.7161 82.7772C20.9819 80.4034 20.9153 79.2366 20.6373 76.8712C21.2766 74.4973 21.9559 73.3806 23.1996 71.8995Z" fill="#FABAAC"/>
<path d="M25.9366 41.7666L18.3464 35.69C17.6654 32.1944 15.899 29.595 12.7557 28.1289C10.5663 28.1289 8.14387 31.1781 5.56994 36.7515C2.64138 38.9515 -1.53918 46.9773 0.575242 48.9047C6.14599 52.1846 9.98856 45.5296 11.7184 44.6619C14.7219 44.5031 17.5056 48.5587 20.0762 51.1248L25.9366 41.7666Z" fill="#1D1D1B"/>
<path d="M122.656 163.695C122.656 163.695 110.743 173.727 105.65 172.957C100.557 172.184 100.751 173 100.751 173L95.7559 162.539L102.096 154.822L111.126 160.803C117.28 160.093 121.775 160.584 122.656 163.695Z" fill="#1D1D1B"/>
<path d="M12.997 46.7136C12.8805 48.7046 13.2501 50.9396 14.2424 53.3469C21.4231 56.2289 31.9385 68.0127 42.7287 80.5505C55.7899 85.5739 66.6367 79.0676 73.5194 71.2424C78.6856 65.363 81.6124 58.7181 81.5342 55.6622L81.4177 55.6271L53.484 46.5865C49.3467 49.1793 46.866 53.5675 45.609 59.2379C39.5588 49.2378 31.1294 41.7837 20.4308 36.7469C16.5582 38.1027 13.2617 41.6667 12.997 46.7136Z" fill="#EAB14D"/>
<path d="M51.879 82.3153C48.9788 82.3153 45.9187 81.7771 42.7287 80.55C31.9385 68.0123 21.4231 56.2285 14.2423 53.3465C13.3666 51.2217 12.9753 49.2307 12.9753 47.4236C12.9753 47.1829 12.982 46.9472 12.997 46.7132C26.2995 50.3608 30.9113 56.0897 38.4966 68.0942C41.6216 65.9528 43.2582 61.1483 45.609 59.2375C47.3572 66.501 49.9761 74.3681 53.2543 82.2752C52.8014 82.3019 52.3419 82.3153 51.879 82.3153Z" fill="#E49542"/>
<path d="M45.609 59.2378C50.2091 78.3503 60.8395 101.652 73.6592 118.841C73.0815 133.08 82.6613 150.257 95.8506 168.467C97.3274 166.673 98.4912 164.715 99.5967 162.886C101.42 159.831 103.056 157.134 105.65 156.171C98.8358 142.791 92.3228 123.795 86.0511 110.31C81.8106 88.8954 78.271 75.4332 71.4915 62.4107L53.772 47.3621L49.2185 53.9954L45.609 59.2378Z" fill="#EAB14D"/>
<path d="M95.8506 168.467C83.0476 150.79 73.6459 134.086 73.6343 120.099C73.6343 119.678 73.6426 119.258 73.6592 118.841C65.711 108.183 58.6036 95.176 53.2542 82.2755C49.9761 74.3683 47.3572 66.5013 45.609 59.2378L49.2185 53.9954C54.1399 75.5369 61.8418 96.0603 76.6211 113.921C78.9836 133.125 87.5628 148.949 99.5967 162.886C98.9407 163.971 98.2631 165.103 97.5122 166.218C96.9994 166.982 96.45 167.738 95.8506 168.467Z" fill="#E49542"/>
<path d="M48.5858 51.1254C52.6066 66.7976 70.6391 66.1724 81.5342 55.6624C81.5342 55.6624 89.9019 51.4146 94.214 45.6255C95.3661 44.0876 96.3235 42.5128 97.1076 40.9147C97.9251 39.2597 98.5711 37.593 99.0556 35.938C102.998 22.6965 97.4889 9.93979 97.4889 9.93979C78.8454 7.04608 74.2352 18.6209 74.2352 18.6209C59.2362 18.1813 52.1703 37.4426 49.6797 46.5182C48.9188 49.2966 48.5858 51.1254 48.5858 51.1254Z" fill="#EAB14D"/>
<path d="M95.9206 39.6756C96.3135 40.0818 96.7048 40.498 97.1077 40.9143C101.373 45.2791 106.411 49.7693 110.262 51.9926C117.121 60.6637 131.461 69.5221 134.205 72.1884C134.639 72.6097 135.219 73.2081 135.219 73.2081C135.299 72.9423 135.255 71.7287 135.37 71.498C136.386 69.4033 138.848 68.9102 140.209 68.6427C128.762 52.7265 115.565 33.1476 108.809 27.4404C108.809 27.4404 104.923 13.6539 97.4889 9.93939L88.645 29.861C87.7576 30.1953 91.1923 34.6872 95.9206 39.6756Z" fill="#EAB14D"/>
<path d="M94.2575 26.526C94.2575 26.526 90.3433 30.62 88.0374 31.9239C85.7299 33.2245 75.0445 29.3996 79.2767 18.5687L88.5053 11.3336L94.2575 26.526Z" fill="#FABAAC"/>
<path d="M135.271 72.6179C135.289 72.1764 135.299 71.6429 135.37 71.4974L135.271 72.6179Z" fill="#C72727"/>
<path d="M134.175 72.1584C133.241 71.356 131.798 70.2661 130.054 68.9689C131.971 70.3647 133.451 71.4647 134.175 72.1584Z" fill="#CF3149"/>
<path d="M63.9362 63.2682C56.9619 63.2665 50.7469 59.552 48.5858 51.125C48.5858 51.125 48.9188 49.2961 49.6797 46.5178L56.1694 44.0871C58.6451 52.7449 60.1752 56.5647 67.1944 56.5647C69.3971 56.5647 72.1441 56.1869 75.6304 55.4647C81.729 54.2494 90.6628 47.1079 95.9205 39.6755C96.3135 40.0818 96.7047 40.498 97.1076 40.9143C96.3235 42.5124 95.3661 44.0871 94.214 45.6251C89.9019 51.4142 81.5342 55.662 81.5342 55.662C76.4962 60.5216 69.9348 63.2682 63.9362 63.2682Z" fill="#E49542"/>
<path d="M135.219 73.2081C135.049 72.9557 134.689 72.5996 134.175 72.1583C133.451 71.4645 131.971 70.3646 130.054 68.9687C124.199 64.6123 114.952 57.9221 110.262 51.9926C106.411 49.7693 101.373 45.2791 97.1076 40.9143C96.7047 40.498 96.3134 40.0818 95.9205 39.6756C97.0044 38.1476 97.9251 36.608 98.641 35.1152C98.7792 35.3927 98.9174 35.6718 99.0555 35.9376C102.26 42.1062 107.242 46.8538 114.158 50.0601C117.444 56.4377 125.353 63.753 135.37 71.498C135.299 71.6434 135.289 72.1767 135.27 72.618L135.219 73.2081Z" fill="#E49542"/>
<path d="M66.1656 46.3503C66.1656 46.3503 48.8407 51.2952 42.5324 49.3878L31.5807 73.4067C28.5988 73.9768 26.0099 73.6157 24.0869 71.6698C24.0869 71.6698 27.4018 43.022 35.3267 38.1022C43.2516 33.1824 53.5357 28.5952 63.3236 29.095C68.0969 34.2957 72.9917 44.7572 66.1656 46.3503Z" fill="#EAB14D"/>
<path d="M90.0303 38.9315C89.9504 38.9315 89.8689 38.9281 89.7873 38.9231C87.3166 38.7509 85.9297 35.5296 85.1505 31.9221C85.7649 32.0876 86.3409 32.1678 86.8354 32.1678C87.3349 32.1678 87.7511 32.0843 88.0375 31.9238C88.3338 31.7549 88.6568 31.5409 88.9964 31.2952C89.749 32.5673 91.314 34.5617 93.3318 36.8502C92.4894 38.099 91.4105 38.9315 90.0303 38.9315Z" fill="#E49542"/>
<path d="M93.3317 36.8502C91.3139 34.5617 89.7488 32.5673 88.9963 31.2952C89.5707 30.8789 90.19 30.369 90.7944 29.8408C92.2628 30.8421 93.6264 31.4256 95.3978 31.5459C94.9566 33.44 94.299 35.4176 93.3317 36.8502Z" fill="#E49542"/>
<path d="M86.8353 32.1682C86.3408 32.1682 85.7647 32.0879 85.1504 31.9224C84.3862 28.3818 84.2081 24.4683 84.1664 22.7047C85.0755 24.8495 86.479 26.7218 88.6683 28.2146C89.4309 28.8415 90.1235 29.3848 90.7944 29.8411C90.1901 30.3694 89.5707 30.8793 88.9963 31.2956C88.6567 31.5413 88.3337 31.7553 88.0373 31.9242C87.751 32.0846 87.3347 32.1682 86.8353 32.1682Z" fill="#E78165"/>
<path d="M82.4034 10.4522C82.5865 17.6823 82.8879 24.2738 88.6684 28.214C91.4904 30.5293 93.3434 31.7195 96.7015 31.5524C99.0074 31.4354 101.345 28.1655 102.982 24.0883C104.219 21.1026 105.104 17.6823 105.337 14.7468C105.389 14.4275 105.404 14.0931 105.421 13.7739C105.755 7.2325 99.9931 2.25085 92.9605 0.406969C86.3958 0.473837 82.6531 3.57648 82.4034 10.4522Z" fill="#FABAAC"/>
<path d="M105.885 15.2272C104.4 18.7378 96.8197 20.4262 90.4681 17.6462L89.8888 22.1431L87.2849 19.6706L84.6727 22.4857L83.6987 21.1083C79.7962 15.4279 79.3883 4.89615 87.6944 0.95763C98.2998 -3.31857 109.26 7.6795 105.885 15.2272Z" fill="black"/>
<path d="M86.3675 22.1331C85.7299 21.6048 85.1305 21.0047 84.7775 20.2658C84.4229 19.5269 84.348 18.6275 84.7443 17.9087C85.1422 17.1916 86.0745 16.7436 86.8637 17.0227C87.4081 17.215 87.796 17.7064 87.9941 18.2364C88.1939 18.7663 88.2305 19.338 88.2655 19.9031C88.2955 20.4129 88.3271 20.9261 88.3587 21.4376C88.3804 21.7904 88.387 22.1849 88.1423 22.4474C87.9175 22.6864 87.533 22.735 87.2133 22.643C86.892 22.5511 86.6223 22.3437 86.3675 22.1331Z" fill="#FABAAC"/>
<path d="M100.902 24.2809C97.564 24.2809 93.4151 22.9418 90.1885 19.8141L90.4682 17.6459C92.6709 18.6088 95.0184 19.0367 97.211 19.0367C100.624 19.0367 103.656 18.0003 105.154 16.347C104.78 18.8813 103.999 21.6329 102.982 24.0887C102.341 24.2157 101.641 24.2809 100.902 24.2809Z" fill="#FABAAC"/>
<path d="M90.1883 19.8141C90.0534 19.682 89.9186 19.5483 89.7871 19.4095L90.3698 17.3634L105.42 13.7743C105.404 14.0936 105.389 14.4279 105.337 14.7472C105.297 15.2671 105.234 15.8021 105.154 16.347C103.656 18.0003 100.624 19.0368 97.2108 19.0368C95.0182 19.0368 92.6707 18.6088 90.468 17.6459L90.1883 19.8141Z" fill="black"/>
<path d="M81.0182 13.3244C83.1609 16.5625 86.6506 18.4248 92.2546 18.1205L106.523 11.1763C105.903 4.94418 99.8099 -0.592447 91.8817 0.051157C84.3114 0.664669 80.5004 5.67974 81.0182 13.3244Z" fill="#EAB14D"/>
<path d="M91.5902 18.1456C95.1481 19.6434 98.115 20.5311 101.142 20.9356C102.612 21.1329 104.022 20.8203 104.891 20.2971C108.446 18.1539 110.767 16.6361 113.091 15.6431C113.748 15.3622 113.862 14.7187 113.132 14.1971C111.924 13.3311 109.435 12.0489 106.406 10.3388C101.758 11.0911 96.7947 14.1302 91.5902 18.1456Z" fill="#CD7C26"/>
</svg>
