<svg width="150" height="173" viewBox="0 0 150 178" fill="none" xmlns="http://www.w3.org/2000/svg">
<path d="M93.1328 55.3905C93.0391 76.2832 105.625 100.609 121.24 109.727C136.859 118.842 149.596 109.296 149.687 88.4032C149.781 67.5125 137.195 43.1851 121.578 34.0686C105.961 24.9501 93.2245 34.4999 93.1328 55.3905Z" fill="#212034"/>
<path d="M138.923 111.738L120.512 122.276L86.5115 42.1372L105.665 31.3271L138.923 111.738Z" fill="#212034"/>
<path d="M74.6741 65.948C74.5824 86.8386 87.1665 111.166 102.783 120.281C118.4 129.399 131.137 119.851 131.229 98.9586C131.322 78.066 118.736 53.7405 103.119 44.6241C87.5022 35.5076 74.7678 45.0534 74.6741 65.948Z" fill="#302D47"/>
<path d="M82.624 70.5885C82.5583 85.6059 91.6047 103.091 102.831 109.643C114.055 116.198 123.21 109.334 123.278 94.319C123.344 79.2996 114.297 61.814 103.073 55.2606C91.8467 48.7072 82.6917 55.5691 82.624 70.5885Z" fill="white"/>
<path d="M91.5281 76.3841C91.4924 84.0545 96.1134 92.9861 101.848 96.3335C107.582 99.6809 112.259 96.1745 112.292 88.5061C112.326 80.8338 107.705 71.9021 101.973 68.5568C96.2386 65.2094 91.5619 68.7137 91.5281 76.3841Z" fill="#302D47"/>
<path d="M93.26 77.3967C93.2312 83.7877 97.0818 91.2261 101.859 94.0146C106.636 96.8031 110.532 93.8838 110.559 87.4947C110.588 81.1037 106.74 73.6613 101.963 70.8748C97.1837 68.0863 93.2888 71.0057 93.26 77.3967Z" fill="#B98E83"/>
<path d="M75.1241 48.2683C75.3585 49.74 74.2634 50.3715 72.7125 51.8135C72.2662 52.229 76.5767 53.4081 76.5767 53.4081L74.8938 61.4858L65.0387 57.9712L61.3063 52.2075C61.3063 52.2075 66.8401 52.4654 68.0399 51.077C68.6628 50.3541 71.119 49.7496 72.579 49.2726C73.9284 48.8327 75.0185 47.616 75.1241 48.2683Z" fill="#FABAAC"/>
<path d="M16.1344 130.151C14.4678 130.132 8.61987 130.589 5.98349 131.373C3.73383 132.042 -0.24527 133.467 0.0118904 136.881C0.357388 141.483 1.439 146.637 1.15632 153.701C1.0778 155.688 0.879528 158.194 6.50564 160.122C12.1318 162.048 16.635 159.249 18.3193 157.679C19.9762 156.14 22.4241 152.29 14.7839 151.065C14.9527 149.323 14.5326 145.463 20.0488 143.822C22.5183 143.088 20.088 130.199 16.1344 130.151Z" fill="#212034"/>
<path d="M44.8323 147.377C43.1676 147.355 37.3175 147.815 34.683 148.598C32.4313 149.267 28.454 150.693 28.7092 154.105C29.0528 158.707 30.1364 163.863 29.8557 170.926C29.7772 172.913 29.577 175.421 35.2032 177.347C40.8295 179.273 45.3328 176.476 47.0192 174.909C48.6741 173.369 51.122 169.515 43.4816 168.289C43.6505 166.548 43.2304 162.688 48.7487 161.049C51.2143 160.314 48.784 147.423 44.8323 147.377Z" fill="#212034"/>
<path d="M47.1006 140.034C37.3345 141.957 18.6649 147.376 18.6649 147.376C18.6649 147.376 18.3983 139.888 16.5297 135.589C15.1082 132.317 11.479 130.162 11.479 130.162L42.8577 116.753L61.2214 129.284C61.2214 129.284 55.7119 138.34 47.1006 140.034Z" fill="#EAB14D"/>
<path d="M15.3066 97.6133L57.2516 103.571C57.2516 103.571 69.7718 113.26 81.4314 123.455C87.145 128.453 90.6508 135.371 93.1501 140.989C96.0827 147.572 87.6847 152.938 78.7529 156.016C70.5774 158.83 48.5561 164.603 48.5561 164.603C48.5561 164.603 48.5069 157.138 45.5546 153.155C42.9036 149.573 39.4904 146.816 39.4904 146.816L48.6625 143.064C35.1023 139.731 20.1398 136.236 15.3066 126.577C10.9992 117.973 15.3066 97.6133 15.3066 97.6133Z" fill="#EAB14D"/>
<path d="M36.3503 38.2796C36.3503 38.2796 26.74 38.1799 24.2953 46.3675C21.8543 54.5551 23.5016 61.2473 23.5016 61.2473L35.4423 54.8033L36.3503 38.2796Z" fill="#EAB14D"/>
<path d="M48.2359 7.18882C44.2286 4.45346 36.5225 5.30677 33.1784 12.2535C31.329 16.1004 33.9437 26.4427 34.3565 33.7048C34.6911 39.5618 32.6955 42.9435 32.6955 42.9435C32.6955 42.9435 32.6955 42.9435 37.8029 45.0148C42.9122 47.086 48.2359 45.0148 48.2359 45.0148L48.0717 36.0815C48.0717 36.0815 53.5697 35.2794 54.5335 34.4103C56.8497 32.3214 58.0759 26.1077 57.002 18.0948C55.4031 6.16603 49.7126 8.19585 48.2359 7.18882Z" fill="#FABAAC"/>
<path d="M68.8741 111.431C68.331 111.915 59.8784 129.222 38.9924 130.137C29.933 130.538 19.6323 121.935 13.6504 118.779C12.8944 110.171 14.0681 102.818 13.7797 95.9912C12.8208 73.2152 17.4003 59.1732 21.0209 52.0278C25.5148 43.1544 30.6372 40.1939 30.6372 40.1939L49.1221 42.9453C49.1221 42.9453 55.0065 44.8785 59.0926 50.1524C61.8995 53.7779 69.0114 62.1756 66.0195 68.5704C62.57 75.9407 65.3033 102.271 68.8741 111.431Z" fill="#E49542"/>
<path d="M50.1959 41.8402C47.1395 41.5517 41.773 42.2514 37.2021 39.4116C32.3339 36.3874 30.6107 40.3793 30.6107 40.3793C30.6107 40.3793 33.0074 44.6373 38.108 46.1726C43.2106 47.706 50.4578 48.858 55.4816 46.5169C55.5151 43.3978 52.3366 42.0449 50.1959 41.8402Z" fill="#EAB14D"/>
<path d="M59.3082 5.71724C56.7418 5.97565 56.072 5.76969 53.2784 4.48733C54.3794 4.16092 55.3908 2.54243 56.0682 1.19014C49.8723 -1.09867 37.5474 0.368294 34.8665 1.8022C29.9224 4.44851 24.8467 8.59476 27.5257 21.2609C29.6915 31.5003 32.5843 33.962 35.6221 36.3655C43.9284 33.2412 45.2355 26.9557 45.2355 26.9557C45.2355 26.9557 42.5755 21.599 44.6382 19.691C46.8288 17.6587 49.0728 20.8898 49.5861 22.1974C52.9712 19.5628 59.3082 14.0078 59.3082 5.71724Z" fill="#212034"/>
<path d="M62.5857 97.6129C62.5857 97.6129 57.7241 105.359 54.5314 108.702C51.3387 112.045 49.7424 112.808 49.7424 112.808L53.2378 116.753C53.2378 116.753 56.4829 113.653 58.7856 110.247C61.3122 106.508 63.1346 103.173 63.1346 103.173L62.5857 97.6129Z" fill="#EAB14D"/>
<path d="M116.401 79.0541C116.401 79.0541 122.065 74.5082 124.672 71.8773C127.532 68.9899 127.031 72.4198 126.409 73.2733C125.787 74.1266 125.322 75.3607 125.009 77.4465C126.122 78.469 129.286 80.3031 131.217 81.7999C136.241 85.6957 133.966 90.1346 129.118 90.0821C121.944 90.0013 115.597 88.8867 115.597 88.8867L116.401 79.0541Z" fill="#FABAAC"/>
<path d="M49.7836 60.7266C49.9595 57.1053 51.3729 47.8674 55.4452 47.8498C67.6958 47.8028 74.1271 66.4529 84.9464 71.1306C95.7656 75.8083 117.606 75.2879 117.606 75.2879C117.606 75.2879 121.686 79.3669 122.224 82.6673C123.1 88.0532 121.063 91.9053 121.063 91.9053C121.063 91.9053 89.7682 96.135 78.945 91.9053C68.1197 87.6776 48.7301 82.5401 49.7836 60.7266Z" fill="#EAB14D"/>
</svg>
