<svg width="195" height="173" viewBox="0 0 195 164" fill="none" xmlns="http://www.w3.org/2000/svg">
<path d="M161.012 126.191L161.177 126.095L161.012 126.191Z" fill="#EB5746"/>
<path d="M128.109 40.0948L157.916 57.1555C160.445 58.6038 162.514 62.5213 162.514 65.863V119.308L147.113 106.258L133.654 112.151L128.109 108.978C125.581 107.529 123.511 103.612 123.511 100.27V43.5384C123.511 40.1989 125.581 38.6465 128.109 40.0948Z" fill="#F36762"/>
<path d="M161.012 126.191L139.412 138.457L126.94 115.09L133.654 112.151L157.916 126.038C159.111 126.723 160.193 126.716 161.012 126.191Z" fill="#D0322D"/>
<path d="M162.514 119.308V122.593C162.514 124.254 162.002 125.467 161.178 126.096L161.012 126.191C160.193 126.716 159.111 126.723 157.916 126.038L133.654 112.151L147.113 106.258L162.514 119.308Z" fill="#D0322D"/>
<path d="M107.07 43.0686L127.99 31.1323L130.103 32.6581L109.662 44.1648L107.07 43.0686Z" fill="#EB5746"/>
<path d="M125.303 39.7673L103.361 52.2085L115.984 71.4395L137.179 57.7825L125.303 39.7673Z" fill="#F36762"/>
<path d="M106.598 121.171L136.405 138.234C138.933 139.68 141.001 138.13 141.001 134.788V78.0587C141.001 74.7169 138.933 70.7973 136.405 69.3512L106.598 52.2883C104.068 50.8422 102 52.3924 102 55.7341V112.464C102 115.805 104.068 119.725 106.598 121.171Z" fill="#E1453B"/>
<path d="M102.491 53.2891L105.881 44.4774C106.516 42.8276 108.011 42.3781 109.661 43.3414L113.818 45.7685L115.051 60.4774L102.491 53.2891Z" fill="#E1453B"/>
<path d="M140.87 76.5681C140.87 72.52 138.026 64.1889 138.026 64.1889C137.141 60.8738 135.059 57.8598 132.758 56.5599L126.521 53.0388L125.374 66.3857C125.374 66.3857 140.87 81.1766 140.87 76.5681Z" fill="#E1453B"/>
<path d="M123.823 41.0779L127.213 32.2686C127.848 30.6166 129.343 30.167 130.993 31.1325L135.15 33.5574L136.384 48.2686L123.823 41.0779Z" fill="#EB5746"/>
<path d="M162.452 64.8733C162.452 60.8252 159.358 51.9781 159.358 51.9781C158.473 48.663 156.391 45.649 154.089 44.3513L147.854 40.8302L140.87 53.0388C140.87 53.0388 162.452 69.4795 162.452 64.8733Z" fill="#F36762"/>
<path d="M113.819 45.7682L135.151 33.5573L130.994 31.1324L109.662 43.3411L113.819 45.7682Z" fill="#F57877"/>
<path d="M135.15 33.5573L136.08 44.6565L114.757 56.9583L113.818 45.7682L135.15 33.5573Z" fill="#EB5746"/>
<path d="M126.521 53.0385L147.854 40.8298L154.089 44.3509L132.758 56.5596L126.521 53.0385Z" fill="#F57877"/>
<path d="M141.002 78.0583L162.514 65.8629V122.592L141.002 134.788V78.0583Z" fill="#EB5746"/>
<path d="M123.728 48.5302L129.072 51.5796L138.129 46.3953L127.806 40.4693L123.728 48.5302Z" fill="#D0322D"/>
<path d="M128.937 43.2504C128.877 45.5402 127.415 47.9607 125.672 48.6561C123.928 49.3514 122.562 48.0581 122.62 45.7683C122.681 43.4785 124.143 41.0558 125.886 40.3604C127.632 39.6651 128.996 40.9583 128.937 43.2504Z" fill="#D0322D"/>
<path d="M106.358 66.8686C107.273 66.6959 108.455 67.7898 108.985 69.3001L120.455 102.002L115.199 97.139L105.657 69.929C105.126 68.4187 105.442 67.0413 106.358 66.8686Z" fill="#D0322D"/>
<path d="M134.059 82.6246C133.142 81.4088 131.96 81.1586 131.437 82.0709L120.113 101.807L125.358 102.916L134.781 86.4933C135.305 85.5832 134.979 83.8426 134.059 82.6246Z" fill="#D0322D"/>
<path d="M106.481 111.374C107.4 112.589 108.58 112.84 109.103 111.927L120.428 92.1914L115.182 91.0819L105.76 107.505C105.236 108.415 105.561 110.156 106.481 111.374Z" fill="#D0322D"/>
<path d="M134.184 127.13C133.269 127.303 132.086 126.209 131.556 124.699L120.086 91.999L125.342 96.8621L134.885 124.07C135.415 125.58 135.1 126.958 134.184 127.13Z" fill="#D0322D"/>
<path d="M114.543 99.8687L125.543 106.127C126.776 106.827 127.78 106.069 127.775 104.444L127.754 96.8105C127.75 95.185 126.739 93.2827 125.506 92.5807L114.505 86.3247C113.274 85.6227 112.27 86.3801 112.273 88.0055L112.294 95.639C112.298 97.2644 113.311 99.1689 114.543 99.8687Z" fill="#D0322D"/>
<path d="M116.009 98.3791L124.063 102.959C124.835 103.397 125.463 102.923 125.46 101.907L125.447 96.7226C125.443 95.7039 124.81 94.5125 124.04 94.074L115.983 89.4922C115.212 89.0537 114.584 89.5276 114.587 90.5441L114.601 95.7305C114.604 96.747 115.237 97.9384 116.009 98.3791Z" fill="#E1453B"/>
<path d="M112.781 73.9439L127.445 82.3369V79.8323L112.781 71.4392V73.9439Z" fill="#D0322D"/>
<path d="M112.781 116.365L127.445 124.759V122.252L112.781 113.859V116.365Z" fill="#D0322D"/>
<path d="M112.781 111.334L127.445 119.727V117.22L112.781 108.827V111.334Z" fill="#D0322D"/>
<path d="M112.781 68.494L127.445 76.8871V74.3824L112.781 65.9893V68.494Z" fill="#D0322D"/>
<path d="M145.026 107.877L158.59 100.111V75.5696L145.026 83.3337V107.877Z" fill="#302D47"/>
<path d="M150.255 102.184L156.068 98.8551V88.3383L150.255 91.6668V102.184Z" fill="white"/>
<path d="M146.922 86.0308L156.593 80.4546V78.6432L146.922 84.2215V86.0308Z" fill="#DEBEB1"/>
<path d="M146.922 89.7577L156.593 84.1793V82.3701L146.922 87.9462V89.7577Z" fill="#DEBEB1"/>
<path d="M143.324 57.3838C142.277 60.5351 143.955 64.0097 147.072 65.1435C150.189 66.2774 153.565 64.643 154.611 61.4918C155.658 58.3405 153.98 54.8681 150.863 53.7321C147.746 52.5982 144.371 54.2325 143.324 57.3838Z" fill="#3E3C5B"/>
<path d="M153.717 63.7238L151.661 64.902L145.401 54.507L147.887 53.0321L153.717 63.7238Z" fill="#3E3C5B"/>
<path d="M144.995 56.4111C143.949 59.5602 145.626 63.0348 148.744 64.1686C151.86 65.3047 155.236 63.6682 156.283 60.5191C157.33 57.3678 155.651 53.8932 152.535 52.7594C149.418 51.6255 146.043 53.2599 144.995 56.4111Z" fill="#4D4C6F"/>
<path d="M146.051 56.5884C145.182 59.2081 146.576 62.0937 149.165 63.0349C151.754 63.9782 154.559 62.6208 155.428 60.001C156.297 57.3856 154.904 54.5001 152.314 53.5567C149.726 52.6155 146.921 53.973 146.051 56.5884Z" fill="#212034"/>
<path d="M155.952 61.1793L152.829 62.8557L148.034 54.0286L150.976 52.3987L155.952 61.1793Z" fill="#212034"/>
<path d="M148.474 55.2534C147.605 57.8709 148.998 60.7565 151.588 61.6977C154.177 62.6411 156.981 61.2836 157.85 58.666C158.721 56.0484 157.326 53.1629 154.736 52.2195C152.147 51.2783 149.344 52.6358 148.474 55.2534Z" fill="#302D47"/>
<path d="M156.392 58.5238C157.071 56.4798 155.982 54.2276 153.962 53.4924C152.997 53.1403 151.999 53.2089 151.141 53.5876C152.083 53.014 153.259 52.8479 154.391 53.2598C156.413 53.9951 157.5 56.2472 156.821 58.2912C156.467 59.3586 155.695 60.1492 154.753 60.5634C155.493 60.1138 156.094 59.4207 156.392 58.5238Z" fill="#BC9288"/>
<path d="M151.933 60.659C149.913 59.9238 148.824 57.6694 149.502 55.6276C149.801 54.7285 150.401 54.0353 151.141 53.588C152 53.2093 152.998 53.1407 153.962 53.4928C155.983 54.228 157.072 56.4802 156.392 58.5242C156.095 59.4211 155.493 60.1142 154.754 60.5637C153.896 60.9424 152.898 61.0089 151.933 60.659Z" fill="#DEBEB1"/>
<path d="M124.5 117.349L155.202 134.513V163.409L124.5 146.279V117.349Z" fill="#CCA89B"/>
<path d="M195 112.855L155.202 135.019V163.409L195 141.277V112.855Z" fill="#DEBEB1"/>
<path d="M158.613 141.399L190.452 124.089V138.26L158.613 155.545V141.399Z" fill="#302D47"/>
<path d="M160.887 150.96L188.177 135.323V137.686L160.887 153.298V150.96Z" fill="white"/>
<path d="M124.5 118.472L146.28 130.363L155.202 135.379V139.818L124.5 122.946V118.472Z" fill="#212034"/>
<path d="M195 112.855L155.202 135.465V139.818L195 117.241V112.855Z" fill="#302D47"/>
<path d="M195 112.821L172.998 100.497L133.597 123.009L154.957 135.323L195 112.821Z" fill="#3E3C5B"/>
<path d="M184.766 103.867L143.831 125.999V128.583L184.766 106.484V103.867Z" fill="#302D47"/>
<path d="M179.081 113.978L162.024 123.714V126.336L179.081 116.632V113.978Z" fill="#302D47"/>
<path d="M184.766 103.873L164.428 92.6334L124.5 115.104L144.19 126.336L155.44 120.108L162.385 124.018L179.722 114.228L172.931 110.423L184.766 103.873Z" fill="#484766"/>
<path d="M181.355 113.978C181.355 114.599 182.629 115.102 184.197 115.102C185.766 115.102 187.04 114.599 187.04 113.978C187.04 113.357 185.766 112.855 184.197 112.855C182.629 112.855 181.355 113.357 181.355 113.978Z" fill="#CCA89B"/>
<path d="M181.355 112.855H187.04V113.978H181.355V112.855Z" fill="#CCA89B"/>
<path d="M181.355 113.417C181.355 114.346 182.629 115.102 184.197 115.102C185.766 115.102 187.04 114.346 187.04 113.417C187.04 112.485 185.766 111.731 184.197 111.731C182.629 111.731 181.355 112.485 181.355 113.417Z" fill="#DEBEB1"/>
<path d="M182.492 112.854C182.492 113.475 183.256 113.978 184.197 113.978C185.14 113.978 185.903 113.475 185.903 112.854C185.903 112.233 185.14 111.731 184.197 111.731C183.256 111.731 182.492 112.233 182.492 112.854Z" fill="#EB5746"/>
<path d="M185.903 112.855L185.509 109.485H182.888L182.492 112.855H185.903Z" fill="#EB5746"/>
<path d="M182.492 108.923C182.492 109.233 183.254 109.485 184.196 109.485C185.139 109.485 185.903 109.233 185.903 108.923C185.903 108.613 185.139 108.361 184.196 108.361C183.254 108.361 182.492 108.613 182.492 108.923Z" fill="#F57877"/>
<path d="M151.79 130.829C151.79 131.451 153.064 131.953 154.634 131.953C156.202 131.953 157.476 131.451 157.476 130.829C157.476 130.21 156.202 129.706 154.634 129.706C153.064 129.706 151.79 130.21 151.79 130.829Z" fill="#CCA89B"/>
<path d="M151.79 130.268C151.79 131.199 153.064 131.953 154.634 131.953C156.202 131.953 157.476 131.199 157.476 130.268C157.476 129.337 156.202 128.583 154.634 128.583C153.064 128.583 151.79 129.337 151.79 130.268Z" fill="#DEBEB1"/>
<path d="M151.79 129.707C151.79 130.328 152.808 130.83 154.065 130.83C155.321 130.83 156.339 130.328 156.339 129.707C156.339 129.087 155.321 128.583 154.065 128.583C152.808 128.583 151.79 129.087 151.79 129.707Z" fill="#302D47"/>
<path d="M156.339 129.707L155.813 126.336H152.318L151.79 129.707H156.339Z" fill="#302D47"/>
<path d="M152.927 125.774C152.927 126.084 153.69 126.336 154.633 126.336C155.574 126.336 156.339 126.084 156.339 125.774C156.339 125.465 155.574 125.213 154.633 125.213C153.69 125.213 152.927 125.465 152.927 125.774Z" fill="#484766"/>
<path d="M143.831 126.355V129.707L124.5 118.33V115.102L143.831 126.355Z" fill="#212034"/>
<path d="M155.202 120.719V122.989L162.024 126.336V124.11L155.202 120.719Z" fill="#212034"/>
<path d="M162.921 122.966L176.806 114.882L171.359 111.732L157.476 119.816L162.921 122.966Z" fill="white"/>
<path d="M129.403 116.225L137.008 111.495L135.516 110.608L127.911 115.342L129.403 116.225Z" fill="#F57877"/>
<path d="M131.864 118.472L140.419 113.738L138.741 112.855L130.185 117.588L131.864 118.472Z" fill="#F57877"/>
<path d="M134.146 120.719L174.532 98.0722L172.847 97.1267L132.46 119.773L134.146 120.719Z" fill="#302D47"/>
<path d="M171.121 104.429C171.121 105.359 172.394 106.115 173.964 106.115C175.533 106.115 176.806 105.359 176.806 104.429C176.806 103.498 175.533 102.744 173.964 102.744C172.394 102.744 171.121 103.498 171.121 104.429Z" fill="#CCA89B"/>
<path d="M171.121 102.744H176.806V103.867H171.121V102.744Z" fill="#CCA89B"/>
<path d="M171.121 103.305C171.121 104.236 172.394 104.991 173.964 104.991C175.533 104.991 176.806 104.236 176.806 103.305C176.806 102.376 175.533 101.621 173.964 101.621C172.394 101.621 171.121 102.376 171.121 103.305Z" fill="#F0D6CD"/>
<path d="M173.964 101.837C172.497 101.837 171.303 102.234 171.152 102.744L171.121 102.636C171.121 102.075 172.393 101.621 173.964 101.621C175.534 101.621 176.806 102.075 176.806 102.636L176.775 102.744C176.622 102.234 175.43 101.837 173.964 101.837Z" fill="#CCA89B"/>
<path d="M173.964 103.867C172.481 103.867 171.274 103.375 171.121 102.744C171.274 102.113 172.481 101.621 173.964 101.621C175.447 101.621 176.652 102.113 176.806 102.744C176.652 103.375 175.447 103.867 173.964 103.867Z" fill="#B89489"/>
<path d="M164.298 107.799C164.298 108.73 165.571 109.485 167.14 109.485C168.71 109.485 169.984 108.73 169.984 107.799C169.984 106.867 168.71 106.114 167.14 106.114C165.571 106.114 164.298 106.867 164.298 107.799Z" fill="#CCA89B"/>
<path d="M164.298 107.238H169.984V108.362H164.298V107.238Z" fill="#CCA89B"/>
<path d="M164.298 106.676C164.298 107.607 165.571 108.362 167.14 108.362C168.71 108.362 169.984 107.607 169.984 106.676C169.984 105.746 168.71 104.991 167.14 104.991C165.571 104.991 164.298 105.746 164.298 106.676Z" fill="#F0D6CD"/>
<path d="M167.14 106.33C165.673 106.33 164.481 106.729 164.328 107.238L164.298 107.13C164.298 106.569 165.571 106.114 167.14 106.114C168.711 106.114 169.984 106.569 169.984 107.13L169.954 107.238C169.801 106.729 168.607 106.33 167.14 106.33Z" fill="#CCA89B"/>
<path d="M167.14 108.362C165.658 108.362 164.453 107.869 164.298 107.238C164.453 106.609 165.658 106.115 167.14 106.115C168.622 106.115 169.829 106.609 169.984 107.238C169.829 107.869 168.622 108.362 167.14 108.362Z" fill="#B89489"/>
<path d="M157.476 112.293C157.476 113.223 158.75 113.978 160.319 113.978C161.889 113.978 163.161 113.223 163.161 112.293C163.161 111.363 161.889 110.608 160.319 110.608C158.75 110.608 157.476 111.363 157.476 112.293Z" fill="#CCA89B"/>
<path d="M157.476 110.608H163.161V112.855H157.476V110.608Z" fill="#CCA89B"/>
<path d="M157.476 111.171C157.476 112.102 158.75 112.855 160.319 112.855C161.889 112.855 163.161 112.102 163.161 111.171C163.161 110.24 161.889 109.485 160.319 109.485C158.75 109.485 157.476 110.24 157.476 111.171Z" fill="#F0D6CD"/>
<path d="M159.75 109.919C158.577 109.919 157.623 110.714 157.499 111.732L157.476 111.516C157.476 110.396 158.494 109.485 159.75 109.485C161.006 109.485 162.024 110.396 162.024 111.516L162.001 111.732C161.877 110.714 160.923 109.919 159.75 109.919Z" fill="#CCA89B"/>
<path d="M159.75 112.855C158.565 112.855 157.601 112.115 157.476 111.169C157.601 110.223 158.565 109.485 159.75 109.485C160.935 109.485 161.899 110.223 162.024 111.169C161.899 112.115 160.935 112.855 159.75 112.855Z" fill="#B89489"/>
<path d="M149.516 116.789C149.516 117.719 151.043 118.472 152.928 118.472C154.81 118.472 156.339 117.719 156.339 116.789C156.339 115.857 154.81 115.102 152.928 115.102C151.043 115.102 149.516 115.857 149.516 116.789Z" fill="#CCA89B"/>
<path d="M149.516 115.102H156.339V116.225H149.516V115.102Z" fill="#CCA89B"/>
<path d="M149.516 115.101C149.516 115.722 151.043 116.225 152.928 116.225C154.81 116.225 156.339 115.722 156.339 115.101C156.339 114.481 154.81 113.978 152.928 113.978C151.043 113.978 149.516 114.481 149.516 115.101Z" fill="#F0D6CD"/>
<path d="M152.929 114.194C151.754 114.194 150.801 114.593 150.678 115.102L150.653 114.992C150.653 114.433 151.671 113.978 152.929 113.978C154.184 113.978 155.202 114.433 155.202 114.992L155.178 115.102C155.054 114.593 154.101 114.194 152.929 114.194Z" fill="#CCA89B"/>
<path d="M152.928 116.225C151.741 116.225 150.777 115.731 150.653 115.103C150.777 114.472 151.741 113.978 152.928 113.978C154.112 113.978 155.076 114.472 155.202 115.103C155.076 115.731 154.112 116.225 152.928 116.225Z" fill="#B89489"/>
<path d="M142.694 120.718C142.694 121.338 143.966 121.842 145.535 121.842C147.107 121.842 148.379 121.338 148.379 120.718C148.379 120.098 147.107 119.595 145.535 119.595C143.966 119.595 142.694 120.098 142.694 120.718Z" fill="#CCA89B"/>
<path d="M142.694 119.595H148.379V120.719H142.694V119.595Z" fill="#CCA89B"/>
<path d="M142.694 119.034C142.694 119.965 143.966 120.719 145.535 120.719C147.107 120.719 148.379 119.965 148.379 119.034C148.379 118.104 147.107 117.348 145.535 117.348C143.966 117.348 142.694 118.104 142.694 119.034Z" fill="#F0D6CD"/>
<path d="M145.534 118.688C144.068 118.688 142.876 119.086 142.723 119.595L142.694 119.487C142.694 118.926 143.966 118.472 145.534 118.472C147.105 118.472 148.379 118.926 148.379 119.487L148.348 119.595C148.195 119.086 147.003 118.688 145.534 118.688Z" fill="#CCA89B"/>
<path d="M144.967 120.719C143.781 120.719 142.817 120.226 142.694 119.595C142.817 118.964 143.781 118.472 144.967 118.472C146.154 118.472 147.118 118.964 147.242 119.595C147.118 120.226 146.154 120.719 144.967 120.719Z" fill="#B89489"/>
<path d="M3.05176e-05 137.615C3.05176e-05 152.188 22.3434 164 49.9023 164C77.4611 164 99.8045 152.188 99.8045 137.615C99.8045 123.04 77.4611 111.228 49.9023 111.228C22.3434 111.228 3.05176e-05 123.04 3.05176e-05 137.615Z" fill="#3E3C5B"/>
<path d="M0.0579147 135.289C0.0579147 149.852 22.3862 161.659 49.9325 161.659C77.4737 161.659 99.8045 149.852 99.8045 135.289C99.8045 120.724 77.4737 108.917 49.9325 108.917C22.3862 108.917 0.0579147 120.724 0.0579147 135.289Z" fill="#302D47"/>
<path d="M0.0579147 104.903H99.8045V136.897H0.0579147V104.903Z" fill="#302D47"/>
<path d="M0.0579147 105.996C0.0579147 120.559 22.3862 132.366 49.9325 132.366C77.4737 132.366 99.8045 120.559 99.8045 105.996C99.8045 91.4311 77.4737 79.6243 49.9325 79.6243C22.3862 79.6243 0.0579147 91.4311 0.0579147 105.996Z" fill="#3E3C5B"/>
<path d="M4.4032 104.903C4.4032 118.191 24.7742 128.962 49.9026 128.962C75.0311 128.962 95.4021 118.191 95.4021 104.903C95.4021 91.6185 75.0311 80.8471 49.9026 80.8471C24.7742 80.8471 4.4032 91.6185 4.4032 104.903Z" fill="#504F6F"/>
<path d="M49.9326 90.6357C32.7669 90.6357 18.6956 97.5908 17.2037 106.462C17.1182 105.946 17.0553 105.431 17.0553 104.903C17.0553 95.3024 31.7731 87.5196 49.9326 87.5196C68.0871 87.5196 82.8075 95.3024 82.8075 104.903C82.8075 105.431 82.7471 105.946 82.659 106.462C81.1671 97.5908 67.0934 90.6357 49.9326 90.6357Z" fill="#3E3C5B"/>
<path d="M49.9321 122.287C32.7663 122.287 18.6951 115.332 17.2032 106.461C18.6951 97.5901 32.7663 90.6351 49.9321 90.6351C67.0928 90.6351 81.1666 97.5901 82.6585 106.461C81.1666 115.332 67.0928 122.287 49.9321 122.287Z" fill="#212034"/>
<path d="M49.9014 152.323C76.4815 152.323 98.1432 141.319 99.63 127.462C99.6854 127.964 99.7734 128.462 99.7734 128.972C99.7734 143.535 77.4451 155.342 49.9014 155.342C22.3577 155.342 0.0268478 143.535 0.0268478 128.972C0.0268478 128.462 0.117401 127.964 0.172752 127.462C1.65963 141.319 23.3213 152.323 49.9014 152.323Z" fill="#3E3C5B"/>
<path d="M49.9014 141.397C76.4815 141.397 98.1432 130.393 99.63 116.535C99.6854 117.038 99.7734 117.536 99.7734 118.043C99.7734 132.609 77.4451 144.416 49.9014 144.416C22.3577 144.416 0.0268478 132.609 0.0268478 118.043C0.0268478 117.536 0.117401 117.038 0.172752 116.535C1.65963 130.393 23.3213 141.397 49.9014 141.397Z" fill="#3E3C5B"/>
<path d="M17.1957 101.558C17.1957 116.131 39.539 127.945 67.0978 127.945C94.6566 127.945 117 116.131 117 101.558C117 86.985 94.6566 75.1706 67.0978 75.1706C39.539 75.1706 17.1957 86.985 17.1957 101.558Z" fill="#3E3C5B"/>
<path d="M17.2535 99.2314C17.2535 113.797 39.5818 125.601 67.1255 125.601C94.6692 125.601 117 113.797 117 99.2314C117 84.6686 94.6692 72.8618 67.1255 72.8618C39.5818 72.8618 17.2535 84.6686 17.2535 99.2314Z" fill="#302D47"/>
<path d="M17.2535 68.8479H117V100.84H17.2535V68.8479Z" fill="#302D47"/>
<path d="M17.2535 69.9383C17.2535 84.5037 39.5818 96.3105 67.1255 96.3105C94.6692 96.3105 117 84.5037 117 69.9383C117 55.3755 94.6692 43.5686 67.1255 43.5686C39.5818 43.5686 17.2535 55.3755 17.2535 69.9383Z" fill="#3E3C5B"/>
<path d="M21.5976 68.8479C21.5976 82.1353 41.966 92.9069 67.097 92.9069C92.2255 92.9069 112.596 82.1353 112.596 68.8479C112.596 55.5605 92.2255 44.7891 67.097 44.7891C41.966 44.7891 21.5976 55.5605 21.5976 68.8479Z" fill="#504F6F"/>
<path d="M67.1244 54.578C49.9611 54.578 35.8873 61.5355 34.3979 70.4038C34.3099 69.8911 34.247 69.3734 34.247 68.8482C34.247 59.2472 48.9674 51.4618 67.1244 51.4618C85.2814 51.4618 100.002 59.2472 100.002 68.8482C100.002 69.3734 99.9388 69.8911 99.8533 70.4038C98.3589 61.5355 84.2876 54.578 67.1244 54.578Z" fill="#3E3C5B"/>
<path d="M67.1251 86.2316C49.9619 86.2316 35.8881 79.274 34.3987 70.4032C35.8881 61.535 49.9619 54.5775 67.1251 54.5775C84.2883 54.5775 98.3595 61.535 99.854 70.4032C98.3595 79.274 84.2883 86.2316 67.1251 86.2316Z" fill="#212034"/>
<path d="M67.097 116.268C93.6746 116.268 115.336 105.264 116.823 91.4064C116.878 91.9066 116.969 92.4042 116.969 92.9144C116.969 107.477 94.6407 119.287 67.097 119.287C39.5507 119.287 17.2224 107.477 17.2224 92.9144C17.2224 92.4042 17.313 91.9066 17.3658 91.4064C18.8552 105.264 40.5143 116.268 67.097 116.268Z" fill="#3E3C5B"/>
<path d="M67.097 105.342C93.6746 105.342 115.336 94.3375 116.823 80.4799C116.878 80.9826 116.969 81.4777 116.969 81.9879C116.969 96.5533 94.6407 108.358 67.097 108.358C39.5507 108.358 17.2224 96.5533 17.2224 81.9879C17.2224 81.4777 17.313 80.9826 17.3658 80.4799C18.8552 94.3375 40.5143 105.342 67.097 105.342Z" fill="#3E3C5B"/>
<path d="M103.804 57.9911C103.804 72.564 81.4611 84.3759 53.9022 84.3759C26.3434 84.3759 4 72.564 4 57.9911C4 43.4158 26.3434 31.6039 53.9022 31.6039C81.4611 31.6039 103.804 43.4158 103.804 57.9911Z" fill="#3E3C5B"/>
<path d="M103.747 55.6652C103.747 70.2281 81.4183 82.0349 53.872 82.0349C26.3308 82.0349 4 70.2281 4 55.6652C4 41.0998 26.3308 29.293 53.872 29.293C81.4183 29.293 103.747 41.0998 103.747 55.6652Z" fill="#302D47"/>
<path d="M103.747 25.2791H4V57.2733H103.747V25.2791Z" fill="#302D47"/>
<path d="M103.747 26.3722C103.747 40.9351 81.4183 52.7419 53.872 52.7419C26.3308 52.7419 4 40.9351 4 26.3722C4 11.8068 26.3308 -3.8147e-06 53.872 -3.8147e-06C81.4183 -3.8147e-06 103.747 11.8068 103.747 26.3722Z" fill="#3E3C5B"/>
<path d="M99.4013 25.2792C99.4013 38.5666 79.0303 49.338 53.9019 49.338C28.7734 49.338 8.40244 38.5666 8.40244 25.2792C8.40244 11.9943 28.7734 1.22282 53.9019 1.22282C79.0303 1.22282 99.4013 11.9943 99.4013 25.2792Z" fill="#504F6F"/>
<path d="M53.8719 11.0115C71.0376 11.0115 85.1089 17.9665 86.6008 26.8373C86.6863 26.3221 86.7492 25.8069 86.7492 25.2792C86.7492 15.6782 72.0314 7.89532 53.8719 7.89532C35.7174 7.89532 20.997 15.6782 20.997 25.2792C20.997 25.8069 21.0574 26.3221 21.1455 26.8373C22.6374 17.9665 36.7111 11.0115 53.8719 11.0115Z" fill="#3E3C5B"/>
<path d="M53.8724 42.6626C71.0381 42.6626 85.1094 35.7075 86.6013 26.8368C85.1094 17.966 71.0381 11.0109 53.8724 11.0109C36.7117 11.0109 22.6379 17.966 21.146 26.8368C22.6379 35.7075 36.7117 42.6626 53.8724 42.6626Z" fill="#212034"/>
<path d="M53.9031 72.6993C27.323 72.6993 5.66134 61.6952 4.17446 47.8376C4.11911 48.3403 4.03107 48.838 4.03107 49.3482C4.03107 63.9111 26.3594 75.7179 53.9031 75.7179C81.4468 75.7179 103.778 63.9111 103.778 49.3482C103.778 48.838 103.687 48.3403 103.632 47.8376C102.145 61.6952 80.4832 72.6993 53.9031 72.6993Z" fill="#3E3C5B"/>
<path d="M53.9031 61.7726C27.323 61.7726 5.66134 50.7686 4.17446 36.911C4.11911 37.4137 4.03107 37.9114 4.03107 38.4191C4.03107 52.9844 26.3594 64.7913 53.9031 64.7913C81.4468 64.7913 103.778 52.9844 103.778 38.4191C103.778 37.9114 103.687 37.4137 103.632 36.911C102.145 50.7686 80.4832 61.7726 53.9031 61.7726Z" fill="#3E3C5B"/>
<path d="M103.259 158.079C103.259 160.32 106.501 162.136 110.5 162.136C114.5 162.136 117.742 160.32 117.742 158.079C117.742 155.839 114.5 154.022 110.5 154.022C106.501 154.022 103.259 155.839 103.259 158.079Z" fill="#CCA89B"/>
<path d="M116.971 159.9C116.971 159.9 119 158.079 118.965 155.564C118.937 153.622 111.271 156.159 111.271 156.159L116.971 159.9Z" fill="#CCA89B"/>
<path d="M103.994 159.9C103.994 159.9 101.965 158.079 102.001 155.564C102.028 153.622 109.694 156.159 109.694 156.159L103.994 159.9Z" fill="#CCA89B"/>
<path d="M102 155.138H119V125.469H102V155.138Z" fill="#DEBEB1"/>
<path d="M102 155.139C102 157.768 105.806 159.9 110.5 159.9C115.195 159.9 119 157.768 119 155.139C119 152.509 115.195 150.377 110.5 150.377C105.806 150.377 102 152.509 102 155.139Z" fill="#DEBEB1"/>
<path d="M102 125.47C102 128.1 105.806 130.232 110.5 130.232C115.195 130.232 119 128.1 119 125.47C119 122.84 115.195 120.708 110.5 120.708C105.806 120.708 102 122.84 102 125.47Z" fill="#CCA89B"/>
<path d="M107.837 135.405C108.666 135.557 109.544 135.649 110.465 135.649C115.159 135.649 118.965 133.517 118.965 130.888V151.571C118.965 154.2 115.159 156.332 110.465 156.332C109.544 156.332 108.666 156.24 107.837 156.088V135.405Z" fill="#302D47"/>
<path d="M110.673 116.347L114.383 116.085C114.383 116.085 117.743 120.708 118.804 124.451C119.729 127.713 115.234 127.692 110.673 126.911V116.347Z" fill="#CCA89B"/>
<path d="M111.65 116.347L106.544 116.085C106.544 116.085 103.184 120.708 102.122 124.451C101.197 127.713 107.089 127.692 111.65 126.911V116.347Z" fill="#CCA89B"/>
<path d="M106.379 116.651C106.379 117.908 108.2 118.929 110.446 118.929C112.693 118.929 114.513 117.908 114.513 116.651C114.513 115.392 112.693 114.373 110.446 114.373C108.2 114.373 106.379 115.392 106.379 116.651Z" fill="#DEBEB1"/>
<path d="M106.379 113.485H114.513V116.651H106.379V113.485Z" fill="#DEBEB1"/>
<path d="M106.379 113.485C106.379 114.744 108.2 115.763 110.446 115.763C112.693 115.763 114.513 114.744 114.513 113.485C114.513 112.228 112.693 111.207 110.446 111.207C108.2 111.207 106.379 112.228 106.379 113.485Z" fill="#F0D6CD"/>
<path d="M107.837 113.282C107.837 114.077 108.984 114.72 110.402 114.72C111.818 114.72 112.966 114.077 112.966 113.282C112.966 112.488 111.818 111.846 110.402 111.846C108.984 111.846 107.837 112.488 107.837 113.282Z" fill="#CCA89B"/>
<path d="M107.837 110.91H112.966V113.282H107.837V110.91Z" fill="#60649F"/>
<path d="M108.973 137.42C109.718 137.558 110.506 137.641 111.333 137.641C115.548 137.641 118.965 135.725 118.965 133.364V134.467C118.965 136.83 115.548 138.743 111.333 138.743C110.506 138.743 109.718 138.661 108.973 138.523V137.42Z" fill="white"/>
<path d="M115.626 141.667C115.626 141.667 118.651 146.7 115.626 148.495C112.602 150.29 115.626 141.667 115.626 141.667Z" fill="white"/>
<path d="M111.861 107.646V114.044C111.405 114.139 110.918 114.198 110.404 114.198V107.646H111.861Z" fill="#302D47"/>
<path d="M109.937 107.645V114.172C109.509 114.145 109.096 114.093 108.716 114V107.645H109.937Z" fill="#302D47"/>
<path d="M113.549 107.645V113.397C113.205 113.614 112.792 113.792 112.328 113.927V107.645H113.549Z" fill="#302D47"/>
<path d="M108.249 107.645V113.859C107.782 113.703 107.377 113.5 107.049 113.258V107.645H108.249Z" fill="#302D47"/>
<path d="M106.173 107.645H106.582V112.831C106.326 112.526 106.173 112.189 106.173 111.83V107.645Z" fill="#302D47"/>
<path d="M114.629 107.645V111.83C114.629 112.275 114.397 112.687 114.015 113.042V107.645H114.629Z" fill="#302D47"/>
<path d="M114.015 107.646V113.042C113.879 113.169 113.723 113.288 113.549 113.398V107.646H114.015Z" fill="#212034"/>
<path d="M112.328 107.646V113.927C112.176 113.971 112.022 114.011 111.861 114.044V107.646H112.328Z" fill="#212034"/>
<path d="M110.404 107.646V114.198H110.402C110.243 114.198 110.092 114.182 109.938 114.172V107.646H110.404Z" fill="#212034"/>
<path d="M108.716 107.645V114C108.552 113.959 108.401 113.909 108.249 113.859V107.645H108.716Z" fill="#212034"/>
<path d="M107.049 107.646V113.258C106.868 113.125 106.71 112.984 106.582 112.831V107.646H107.049Z" fill="#212034"/>
<path d="M106.173 107.645C106.173 108.955 108.066 110.015 110.401 110.015C112.737 110.015 114.629 108.955 114.629 107.645C114.629 106.337 112.737 105.277 110.401 105.277C108.066 105.277 106.173 106.337 106.173 107.645Z" fill="#3E3C5B"/>
<path d="M107.049 107.645C107.049 108.663 108.521 109.487 110.337 109.487C112.154 109.487 113.627 108.663 113.627 107.645C113.627 106.628 112.154 105.804 110.337 105.804C108.521 105.804 107.049 106.628 107.049 107.645Z" fill="#302D47"/>
</svg>
