<?xml version="1.0" standalone="no"?>
<!DOCTYPE svg PUBLIC "-//W3C//DTD SVG 20010904//EN"
 "http://www.w3.org/TR/2001/REC-SVG-20010904/DTD/svg10.dtd">
<svg version="1.0" xmlns="http://www.w3.org/2000/svg"
 width="700.000000pt" height="700.000000pt" viewBox="0 0 700.000000 700.000000"
 preserveAspectRatio="xMidYMid meet">
<metadata>
Created by potrace 1.11, written by Peter Selinger 2001-2013
</metadata>
<g transform="translate(0.000000,700.000000) scale(0.100000,-0.100000)"
fill="#000000" stroke="none">
<path d="M835 6095 c-17 -8 -36 -24 -42 -34 -11 -17 -106 -217 -179 -378 -34
-74 -32 -117 9 -156 l32 -32 1 -301 c0 -271 2 -305 18 -329 19 -28 71 -55 108
-55 56 0 103 -74 87 -136 -28 -102 -172 -105 -205 -3 l-11 33 -104 0 -104 -1
2 -47 c1 -28 12 -70 27 -101 85 -172 313 -232 472 -124 118 81 169 214 134
353 -24 97 -83 170 -175 216 l-30 15 0 188 c0 113 3 187 9 187 9 0 71 -28 346
-158 52 -24 122 -57 155 -72 33 -15 105 -49 160 -75 55 -26 125 -58 155 -72
83 -38 156 -71 255 -118 214 -101 307 -145 310 -145 2 0 65 -29 140 -65 75
-36 157 -75 183 -86 26 -12 80 -37 120 -55 39 -19 107 -50 150 -70 42 -20 128
-61 190 -90 63 -30 115 -54 117 -54 2 0 69 -31 150 -70 81 -38 149 -70 151
-70 2 0 59 -27 128 -59 l125 -59 0 -776 c0 -590 -3 -776 -12 -777 -56 -6 -794
-2 -790 4 2 4 10 7 18 7 20 0 95 41 128 70 15 14 42 47 59 75 17 27 32 52 35
55 2 2 63 5 136 5 212 2 210 -3 205 342 l-3 252 -115 118 c-161 165 -157 163
-284 163 -71 0 -109 4 -118 13 -7 7 -105 91 -218 186 -113 96 -209 179 -215
185 -32 34 -285 243 -310 256 -27 14 -99 15 -545 15 -360 -1 -527 -5 -556 -13
-55 -16 -131 -68 -163 -112 -14 -20 -82 -147 -149 -283 l-123 -246 -157 -4
c-86 -2 -164 -6 -172 -8 -60 -19 -122 -81 -139 -141 -8 -26 -12 -137 -12 -338
0 -396 -7 -383 201 -386 69 -1 130 -2 136 -3 6 -1 17 -13 24 -28 40 -79 150
-173 203 -173 9 0 17 -3 17 -7 0 -5 -111 -8 -248 -7 -206 0 -252 -2 -275 -15
-59 -32 -58 -29 -58 -548 l1 -474 26 -50 c48 -88 110 -116 260 -117 60 -1 121
-1 135 -2 23 0 28 -6 34 -37 34 -181 189 -368 372 -449 338 -150 731 11 873
356 16 39 27 70 25 70 -2 0 1 13 6 30 9 26 16 30 47 30 195 3 2714 1 2717 -1
2 -2 5 -17 8 -34 19 -107 83 -222 178 -316 62 -63 93 -85 170 -122 112 -53
186 -70 296 -69 290 3 537 192 622 477 l20 70 263 0 263 0 55 28 c93 48 155
122 179 214 8 28 11 281 11 797 0 872 5 823 -92 1006 -69 129 -75 141 -215
400 -55 102 -122 226 -148 275 -27 50 -60 110 -74 135 -14 25 -39 71 -56 103
-54 105 -124 169 -217 199 -22 7 -290 11 -813 12 l-780 2 -113 53 c-62 28
-159 74 -215 100 -56 27 -158 74 -227 106 -69 32 -161 74 -205 95 -78 37 -771
360 -910 425 -38 18 -162 75 -275 128 -113 52 -243 113 -290 135 -201 94 -268
126 -325 152 -33 15 -96 44 -140 65 -44 21 -107 50 -140 65 -33 15 -100 47
-150 70 -49 23 -146 68 -215 100 -69 32 -156 72 -193 90 -83 39 -113 44 -152
25z m1722 -3405 c14 -25 38 -58 52 -74 30 -33 118 -86 144 -86 9 0 17 -3 17
-7 0 -5 -409 -8 -910 -8 -500 0 -910 3 -910 8 0 4 7 7 15 7 50 0 158 87 194
155 12 22 28 42 36 45 8 3 312 5 675 5 l661 0 26 -45z"/>
</g>
</svg>
