<svg width="236" height="181" viewBox="0 0 236 181" fill="none" xmlns="http://www.w3.org/2000/svg">
<path d="M68 180.5C45.8333 180.5 29.25 174.333 18.25 162C7.41667 149.667 1.5 133.5 0.500001 113.5C0.333334 109 0.250001 101.333 0.250001 90.5C0.250001 79.5 0.333334 71.6667 0.500001 67C1.33333 47.3333 7.33333 31.3333 18.5 19C29.6667 6.66666 46.1667 0.49999 68 0.49999C90 0.49999 106.583 6.66666 117.75 19C128.917 31.3333 134.833 47.3333 135.5 67C135.833 71.6667 136 79.5 136 90.5C136 101.333 135.833 109 135.5 113.5C134.667 133.5 128.75 149.667 117.75 162C106.917 174.333 90.3333 180.5 68 180.5ZM68 151.75C78.5 151.75 86.3333 148.333 91.5 141.5C96.6667 134.5 99.4167 124.75 99.75 112.25C100.083 102.583 100.25 95.25 100.25 90.25C100.25 84.75 100.083 77.5 99.75 68.5C99.4167 56.1667 96.6667 46.5 91.5 39.5C86.3333 32.5 78.5 29 68 29C57.6667 29 49.8333 32.5 44.5 39.5C39.3333 46.5 36.5833 56.1667 36.25 68.5C36.0833 73 36 80.25 36 90.25C36 100.083 36.0833 107.417 36.25 112.25C36.5833 124.75 39.3333 134.5 44.5 141.5C49.8333 148.333 57.6667 151.75 68 151.75ZM207.057 178C205.39 178 203.973 177.417 202.807 176.25C201.64 175.083 201.057 173.667 201.057 172V42.5L163.057 71.75C162.057 72.5833 160.89 73 159.557 73C157.557 73 155.89 72.0833 154.557 70.25L144.057 56.75C143.223 55.4167 142.807 54.1667 142.807 53C142.807 51 143.723 49.3333 145.557 48L201.557 4.75C203.057 3.58332 205.14 2.99999 207.807 2.99999H229.807C231.64 2.99999 233.057 3.58332 234.057 4.75C235.223 5.74999 235.807 7.16666 235.807 8.99999V172C235.807 173.667 235.223 175.083 234.057 176.25C233.057 177.417 231.64 178 229.807 178H207.057Z" fill="url(#paint0_linear)"/>
<defs>
<linearGradient id="paint0_linear" x1="120" y1="32.5" x2="120.547" y2="143.831" gradientUnits="userSpaceOnUse">
<stop stop-color="#EAB14D"/>
<stop offset="1" stop-color="#EAB14D" stop-opacity="0"/>
</linearGradient>
</defs>
</svg>
