<svg width="281" height="181" viewBox="0 0 281 181" fill="none" xmlns="http://www.w3.org/2000/svg">
<path d="M68 180.5C45.8333 180.5 29.25 174.333 18.25 162C7.41667 149.667 1.5 133.5 0.500001 113.5C0.333334 109 0.250001 101.333 0.250001 90.5C0.250001 79.5 0.333334 71.6667 0.500001 67C1.33333 47.3333 7.33333 31.3333 18.5 19C29.6667 6.66666 46.1667 0.49999 68 0.49999C90 0.49999 106.583 6.66666 117.75 19C128.917 31.3333 134.833 47.3333 135.5 67C135.833 71.6667 136 79.5 136 90.5C136 101.333 135.833 109 135.5 113.5C134.667 133.5 128.75 149.667 117.75 162C106.917 174.333 90.3333 180.5 68 180.5ZM68 151.75C78.5 151.75 86.3333 148.333 91.5 141.5C96.6667 134.5 99.4167 124.75 99.75 112.25C100.083 102.583 100.25 95.25 100.25 90.25C100.25 84.75 100.083 77.5 99.75 68.5C99.4167 56.1667 96.6667 46.5 91.5 39.5C86.3333 32.5 78.5 29 68 29C57.6667 29 49.8333 32.5 44.5 39.5C39.3333 46.5 36.5833 56.1667 36.25 68.5C36.0833 73 36 80.25 36 90.25C36 100.083 36.0833 107.417 36.25 112.25C36.5833 124.75 39.3333 134.5 44.5 141.5C49.8333 148.333 57.6667 151.75 68 151.75ZM155.057 178C153.39 178 151.973 177.417 150.807 176.25C149.64 175.083 149.057 173.667 149.057 172V159.25C149.057 154.75 151.14 150.833 155.307 147.5L194.807 108.25C211.973 94.75 223.89 84.25 230.557 76.75C237.39 69.0833 240.807 61.5833 240.807 54.25C240.807 46.4167 238.64 40.25 234.307 35.75C230.14 31.25 223.807 29 215.307 29C206.973 29 200.39 31.5 195.557 36.5C190.723 41.3333 187.723 47.6667 186.557 55.5C186.057 57.5 185.14 59 183.807 60C182.473 60.8333 180.973 61.25 179.307 61.25H157.057C155.557 61.25 154.307 60.75 153.307 59.75C152.307 58.75 151.807 57.5833 151.807 56.25C152.14 46.4167 154.807 37.25 159.807 28.75C164.807 20.0833 172.057 13.1667 181.557 8C191.057 2.66666 202.223 -3.09944e-06 215.057 -3.09944e-06C228.39 -3.09944e-06 239.64 2.33333 248.807 7C258.14 11.5 265.14 17.75 269.807 25.75C274.473 33.75 276.807 42.8333 276.807 53C276.807 64.1667 273.64 74.25 267.307 83.25C261.14 92.25 251.64 101.917 238.807 112.25L203.307 148.25H274.557C276.39 148.25 277.807 148.833 278.807 150C279.973 151 280.557 152.417 280.557 154.25V172C280.557 173.667 279.973 175.083 278.807 176.25C277.807 177.417 276.39 178 274.557 178H155.057Z" fill="url(#paint0_linear)"/>
<defs>
<linearGradient id="paint0_linear" x1="139.5" y1="32.5" x2="139.977" y2="143.832" gradientUnits="userSpaceOnUse">
<stop stop-color="#EAB14D"/>
<stop offset="1" stop-color="#EAB14D" stop-opacity="0"/>
</linearGradient>
</defs>
</svg>
