<svg width="285" height="181" viewBox="0 0 285 181" fill="none" xmlns="http://www.w3.org/2000/svg">
<path d="M68 180.5C45.8333 180.5 29.25 174.333 18.25 162C7.41667 149.667 1.5 133.5 0.500001 113.5C0.333334 109 0.250001 101.333 0.250001 90.5C0.250001 79.5 0.333334 71.6667 0.500001 67C1.33333 47.3333 7.33333 31.3333 18.5 19C29.6667 6.66666 46.1667 0.49999 68 0.49999C90 0.49999 106.583 6.66666 117.75 19C128.917 31.3333 134.833 47.3333 135.5 67C135.833 71.6667 136 79.5 136 90.5C136 101.333 135.833 109 135.5 113.5C134.667 133.5 128.75 149.667 117.75 162C106.917 174.333 90.3333 180.5 68 180.5ZM68 151.75C78.5 151.75 86.3333 148.333 91.5 141.5C96.6667 134.5 99.4167 124.75 99.75 112.25C100.083 102.583 100.25 95.25 100.25 90.25C100.25 84.75 100.083 77.5 99.75 68.5C99.4167 56.1667 96.6667 46.5 91.5 39.5C86.3333 32.5 78.5 29 68 29C57.6667 29 49.8333 32.5 44.5 39.5C39.3333 46.5 36.5833 56.1667 36.25 68.5C36.0833 73 36 80.25 36 90.25C36 100.083 36.0833 107.417 36.25 112.25C36.5833 124.75 39.3333 134.5 44.5 141.5C49.8333 148.333 57.6667 151.75 68 151.75ZM215.557 180.5C200.89 180.5 188.39 178.167 178.057 173.5C167.89 168.833 160.223 163 155.057 156C150.057 148.833 147.39 141.5 147.057 134C147.057 132.5 147.557 131.333 148.557 130.5C149.723 129.5 151.057 129 152.557 129H175.057C178.723 129 181.14 130.667 182.307 134C185.973 146 197.14 152 215.807 152C225.973 152 233.973 149.667 239.807 145C245.64 140.167 248.557 133.333 248.557 124.5C248.557 107.833 238.14 99.5 217.307 99.5H191.557C189.723 99.5 188.223 98.9167 187.057 97.75C185.89 96.5833 185.307 95.1667 185.307 93.5V83C185.307 80.3333 186.473 77.8333 188.807 75.5L233.557 31.75H162.057C160.39 31.75 158.973 31.1667 157.807 30C156.64 28.8333 156.057 27.4167 156.057 25.75V9.25C156.057 7.41666 156.557 5.91666 157.557 4.75C158.723 3.58332 160.223 2.99999 162.057 2.99999H269.307C271.14 2.99999 272.64 3.58332 273.807 4.75C274.973 5.91666 275.557 7.41666 275.557 9.25V24.25C275.557 26.75 274.473 29.0833 272.307 31.25L229.057 75.75L232.057 76C248.057 77.3333 260.723 82.1667 270.057 90.5C279.557 98.8333 284.307 110.75 284.307 126.25C284.307 137.25 281.307 146.833 275.307 155C269.473 163.167 261.307 169.5 250.807 174C240.473 178.333 228.723 180.5 215.557 180.5Z" fill="url(#paint0_linear)"/>
<defs>
<linearGradient id="paint0_linear" x1="141" y1="32.5" x2="141.473" y2="143.832" gradientUnits="userSpaceOnUse">
<stop stop-color="#EAB14D"/>
<stop offset="1" stop-color="#EAB14D" stop-opacity="0"/>
</linearGradient>
</defs>
</svg>
