<svg width="40" height="40" viewBox="0 0 40 40" fill="none" xmlns="http://www.w3.org/2000/svg">
<path d="M23.2244 39.7397C23.0577 39.7668 22.8905 39.7917 22.7227 39.8145C22.8905 39.7917 23.0577 39.7668 23.2244 39.7397Z" fill="#EAB14D"/>
<path d="M23.6228 39.6713C23.5435 39.6859 23.4641 39.6993 23.3848 39.713C23.4641 39.6993 23.5435 39.6859 23.6228 39.6713Z" fill="#EAB14D"/>
<path d="M22.2762 39.8703C22.0812 39.8922 21.885 39.9117 21.6881 39.9281C21.885 39.9117 22.0812 39.8922 22.2762 39.8703Z" fill="#EAB14D"/>
<path d="M22.6598 39.8233C22.5665 39.8358 22.4725 39.8474 22.3789 39.8583C22.4725 39.8474 22.5665 39.8358 22.6598 39.8233Z" fill="#EAB14D"/>
<path d="M24.1681 39.5633C24.0981 39.5782 24.0279 39.5931 23.9577 39.6074C24.0279 39.5931 24.0981 39.5782 24.1681 39.5633Z" fill="#EAB14D"/>
<path d="M25.5199 39.2276C25.4633 39.2437 25.4068 39.2589 25.3503 39.2747C25.4068 39.2589 25.4633 39.2437 25.5199 39.2276Z" fill="#EAB14D"/>
<path d="M25.1113 39.3393C25.0499 39.3554 24.9881 39.3718 24.9264 39.3873C24.9881 39.3718 25.0499 39.3557 25.1113 39.3393Z" fill="#EAB14D"/>
<path d="M24.5759 39.473C24.5109 39.4882 24.4452 39.5025 24.3795 39.5171C24.4452 39.5025 24.5109 39.4882 24.5759 39.473Z" fill="#EAB14D"/>
<path d="M21.6815 39.9289C21.5766 39.9377 21.4717 39.9456 21.3665 39.9526C21.4717 39.9456 21.5766 39.9377 21.6815 39.9289Z" fill="#EAB14D"/>
<path d="M40 20C40 8.95599 31.044 0 20 0C8.95599 0 0 8.95599 0 20C0 31.044 8.95599 40 20 40C20.1175 40 20.2344 39.9976 20.3516 39.9954V24.4263H16.0547V19.4186H20.3516V15.7336C20.3516 11.46 22.9605 9.13391 26.7728 9.13391C28.5983 9.13391 30.1675 9.27002 30.625 9.33075V13.7973H27.9962C25.9222 13.7973 25.5206 14.783 25.5206 16.2292V19.4186H30.4797L29.8334 24.4263H25.5206V39.2273C33.8803 36.8307 40 29.129 40 20Z" fill="#EAB14D"/>
<path d="M21.3208 39.9555C21.1127 39.9689 20.9037 39.9795 20.694 39.9865C20.9037 39.9795 21.1127 39.9689 21.3208 39.9555Z" fill="#EAB14D"/>
<path d="M20.683 39.9872C20.5729 39.9909 20.4626 39.9936 20.3522 39.9954C20.4626 39.9936 20.5729 39.9909 20.683 39.9872Z" fill="#EAB14D"/>
</svg>
