<svg width="73" height="112" viewBox="0 0 73 112" fill="none" xmlns="http://www.w3.org/2000/svg">
<path d="M56.9429 79.0999C53.6551 73.6963 50.9499 69.154 50.9499 69.154C50.1668 68.2267 50.6133 66.2664 49.8232 65.1968C46.811 61.7518 45.8919 45.7356 45.8919 45.7356L40.3472 28.9136C40.3472 28.9136 46.5669 24.4702 52.0209 33.2441C57.2185 41.603 63.6963 65.9625 63.6963 65.9625C63.6963 65.9625 59.3638 80.008 56.9429 79.0999" fill="#EAB14D"/>
<path d="M55.5194 101.533C53.613 104.756 49.5526 107.159 45.4678 108.635C43.7428 106.826 41.3533 101.059 41.3533 101.059C41.3533 101.059 39.9405 108.211 38.6934 111.191C28.8476 112.754 17.0013 110.364 10.0909 106.791C9.10023 99.6161 12.5345 80.6967 12.7508 77.1371C13.4746 65.1822 11.0991 46.4833 11.5212 43.3404C12.2241 38.0845 24.1942 32.3909 24.1942 32.3909C24.1942 32.3909 32.6865 25.8465 41.4841 29.2932C41.4841 29.2932 50.8939 36.8586 52.0154 47.5494C52.57 52.8557 52.0956 69.0491 52.0467 80.7696C52.0398 82.2889 55.3066 99.1195 55.5194 101.533" fill="#E49542"/>
<path d="M35.1289 39.1633C35.1289 39.1633 38.7097 44.4991 38.5248 47.1679C38.3399 49.8385 38.1341 64.865 38.5248 69.9109C38.7306 72.5988 40.0946 81.232 40.2149 88.7713C40.3492 97.1475 41.3538 101.06 41.3538 101.06C41.3538 101.06 41.7951 94.7635 41.8962 91.5877C41.9939 88.4136 40.705 74.8109 40.3492 71.1315C39.9916 67.4504 40.1643 49.3523 40.3492 47.1679C40.5323 44.9853 37.3824 38.7621 37.3824 38.7621L35.1289 39.1633Z" fill="#EAB14D"/>
<path d="M38.1273 28.9628L38.5773 35.5051C38.5773 35.5051 38.9576 38.0105 37.2431 40.4951C34.2553 39.568 24.8856 33.8435 24.8856 33.8435L27.1967 21.0594L38.1273 28.9628" fill="#F89D8E"/>
<path d="M25.916 7.00584C29.0258 3.05757 37.9699 -0.26737 43.7971 8.31673C49.9069 17.3175 44.132 32.0341 38.7809 31.1747C35.7827 30.6937 29.0346 27.9747 26.0765 23.1687C22.7486 17.7585 23.4986 10.0721 25.916 7.00584" fill="#FABAAC"/>
<path d="M46.0906 11.3276C44.8505 13.2983 42.9162 15.6093 37.9331 15.8697C33.8553 16.085 30.6338 14.8714 30.6338 14.8714L30.9844 20.2937C30.9844 20.2937 30.1647 20.3249 29.4879 20.0888C28.9507 18.0296 28.0647 17.5487 27.053 18.4168C25.9124 19.3995 26.0763 23.1689 26.0763 23.1689C26.0763 23.1689 21.7648 19.4586 21.7822 13.2532C21.7927 9.38649 25.1886 1.00725 32.3065 0.130436C39.4244 -0.748115 44.4929 2.95709 46.2301 6.74041C47.1022 8.63642 46.6505 10.4369 46.0906 11.3276" fill="#212034"/>
<path d="M32.9573 84.9116C32.9573 84.9116 34.1277 85.7468 35.373 87.0611C36.6218 88.3755 40.8584 89.3408 42.3514 88.6741C43.8479 88.0074 47.1653 82.6684 47.2507 81.3662C47.3362 80.0657 47.5089 79.0309 45.2171 78.8329C45.2171 75.9056 35.7427 77.1383 35.7427 77.1383C35.7427 77.1383 33.3201 77.5863 32.9573 84.9116" fill="#FABAAC"/>
<path d="M57.681 84.611L39.6237 95.1362L54.9427 69.2798L73 58.7528L57.681 84.611" fill="#BC9288"/>
<path d="M39.6233 95.1362L37.9472 94.1153L53.2661 68.2571L54.9423 69.2798L39.6233 95.1362Z" fill="#DEBEB1"/>
<path d="M73 58.7521L71.3238 57.7311L53.2665 68.2564L54.9426 69.2791L73 58.7521" fill="#F0D6CD"/>
<path d="M45.5014 78.8643L42.3056 66.7174C42.1818 66.2434 41.6898 65.957 41.2136 66.082C40.7374 66.2052 40.4495 66.6949 40.5751 67.1689L43.7081 79.0745C44.1774 78.9633 45.1542 78.8817 45.5014 78.8643" fill="#EB5746"/>
<path d="M65.9257 70.3641C62.528 69.5064 60.8763 74.6891 59.3589 78.3249C58.0037 81.5786 61.567 82.3304 65.3867 79.1687C69.3303 75.9062 69.8361 71.352 65.9257 70.3641Z" fill="#FABAAC"/>
<path d="M2.37853 62.9157C5.00698 51.0077 7.84825 41.1816 14.9627 38.1673C19.0842 36.4187 21.7265 47.9274 20.9992 54.6072C20.155 62.3688 17.6278 64.692 14.3923 70.2692C18.3621 70.7554 29.1915 72.563 36.599 75.7301C34.124 79.1161 32.7165 87.8413 32.7165 87.8413C32.7165 87.8413 8.45345 84.2435 3.33258 81.698C-0.258652 79.9113 0.512273 71.3805 2.37853 62.9157" fill="#EAB14D"/>
<path d="M25.8883 28.2901C25.8883 28.2901 24.4982 28.8492 22.8639 30.7765C22.1331 31.6394 20.9994 34.0997 20.9994 34.0997L33.1702 44.7395L37.2428 40.4943L25.8883 28.2901" fill="#EAB14D"/>
<path d="M38.5134 32.489C38.5814 36.0067 37.2417 40.4949 37.2417 40.4949L41.9011 41.7068C41.9011 41.7068 43.021 34.7947 38.5134 32.489Z" fill="#EAB14D"/>
</svg>
