<svg width="110" height="61" viewBox="0 0 110 61" fill="none" xmlns="http://www.w3.org/2000/svg">
<path d="M52.5331 16.7125C48.3027 19.1405 45.667 22.1335 44.6237 25.2689C44.6303 22.8245 44.6378 20.3802 44.6444 17.9359C45.6877 14.8013 48.3242 11.8075 52.5546 9.37947C63.8367 2.90431 82.1852 2.90431 93.5409 9.37947C99.2171 12.6154 102.07 16.858 102.093 21.1007C102.085 23.545 102.079 25.9885 102.071 28.4329C102.048 24.1902 99.1956 19.9484 93.5202 16.7117C82.1645 10.2373 63.816 10.2373 52.5331 16.7125Z" fill="#FBC31C"/>
<path d="M102.093 21.18L102.071 28.513C102.06 32.7287 99.2543 36.9386 93.6485 40.1557C82.3665 46.6309 64.018 46.6309 52.6672 40.159C46.9529 36.901 44.0987 32.624 44.1111 28.3536L44.1318 21.0214C44.1194 25.291 46.9736 29.5679 52.6879 32.826C64.0387 39.2987 82.3872 39.2979 93.6692 32.8227C99.275 29.6056 102.08 25.3956 102.093 21.18Z" fill="#FBBD14"/>
<path d="M93.5409 9.37942C104.892 15.8513 104.951 26.3475 93.6692 32.8226C82.3872 39.2978 64.0387 39.2986 52.688 32.8259C41.3322 26.3507 41.2726 15.8546 52.5546 9.37942C63.8367 2.90425 82.1852 2.90425 93.5409 9.37942Z" fill="#FBBD14"/>
<path d="M52.5547 13.4684C63.8367 6.9932 82.1852 6.9932 93.5409 13.4684C98.327 16.1973 101.098 19.6418 101.865 23.1983C102.928 18.2867 100.154 13.1502 93.5409 9.37947C82.1852 2.90431 63.8367 2.90431 52.5547 9.37947C46.0306 13.1241 43.3071 18.2131 44.3596 23.092C45.1214 19.5731 47.8464 16.1703 52.5547 13.4684Z" fill="#E18C26"/>
<path d="M110 21.2029L109.979 28.5351C109.963 33.9013 106.392 39.2594 99.2577 43.354C84.9028 51.5931 61.5479 51.5931 47.0995 43.354C39.8252 39.2071 36.1926 33.7631 36.2083 28.3274L36.2298 20.9944C36.2141 26.4301 39.8467 31.8741 47.121 36.0218C61.5695 44.2601 84.9243 44.2601 99.2792 36.021C106.414 31.9264 109.984 26.5683 110 21.2029Z" fill="#E18C26"/>
<path d="M52.6879 32.826C64.0387 39.2987 82.3872 39.2979 93.6692 32.8227C104.951 26.3476 104.892 15.8514 93.5409 9.37949C82.1852 2.90433 63.8366 2.90433 52.5546 9.37949C41.2726 15.8547 41.3322 26.3508 52.6879 32.826ZM99.1136 6.18116C113.563 14.4194 113.639 27.7795 99.2792 36.021C84.9243 44.2602 61.5695 44.2601 47.121 36.0218C32.6668 27.7803 32.5906 14.4194 46.9455 6.18116C61.3053 -2.0604 84.6602 -2.0604 99.1136 6.18116Z" fill="#FBC31C"/>
<path d="M76.8352 44.0604C74.6765 45.2993 73.3317 46.8277 72.7985 48.4273C72.8026 47.1802 72.8059 45.9322 72.8092 44.6851C73.3417 43.0856 74.6872 41.5571 76.8459 40.3182C82.6041 37.0136 91.9684 37.0136 97.7639 40.3182C100.66 41.9701 102.116 44.1348 102.128 46.3002C102.124 47.5473 102.12 48.7945 102.117 50.0424C102.105 47.8769 100.649 45.7123 97.7531 44.0604C91.9577 40.7557 82.5934 40.7557 76.8352 44.0604Z" fill="#DC8B64"/>
<path d="M102.128 46.3404L102.117 50.0833C102.111 52.2341 100.679 54.3832 97.8185 56.0245C92.0603 59.3291 82.6969 59.3291 76.9039 56.0261C73.9876 54.3636 72.531 52.1809 72.5368 50.0016L72.5476 46.2594C72.5418 48.4388 73.9983 50.6214 76.9147 52.284C82.7068 55.587 92.0711 55.587 97.8293 52.2823C100.689 50.6411 102.122 48.4919 102.128 46.3404Z" fill="#DC8B64"/>
<path d="M97.7639 40.3182C103.556 43.6212 103.587 48.9777 97.8293 52.2823C92.0711 55.5869 82.7068 55.5869 76.9147 52.2839C71.1192 48.9793 71.0886 43.6229 76.8459 40.3182C82.6041 37.0136 91.9684 37.0136 97.7639 40.3182Z" fill="#DC8B64"/>
<path d="M76.8459 42.4052C82.6041 39.1006 91.9684 39.1006 97.7638 42.4052C100.206 43.7979 101.62 45.5553 102.012 47.3708C102.553 44.8643 101.138 42.2425 97.7638 40.3182C91.9684 37.0136 82.6041 37.0136 76.8459 40.3182C73.5164 42.2294 72.1269 44.8267 72.6643 47.316C73.0527 45.521 74.4438 43.784 76.8459 42.4052Z" fill="#916049"/>
<path d="M106.163 46.3518L106.152 50.0948C106.144 52.8327 104.322 55.5673 100.681 57.6568C93.3553 61.8618 81.4357 61.8618 74.062 57.6568C70.3499 55.5403 68.4959 52.7624 68.5042 49.9885L68.515 46.2463C68.5067 49.0202 70.3607 51.7982 74.0728 53.9146C81.4464 58.1196 93.3661 58.1196 100.692 53.9146C104.333 51.8252 106.155 49.0905 106.163 46.3518Z" fill="#916049"/>
<path d="M76.9147 52.284C82.7068 55.587 92.0711 55.587 97.8293 52.2823C103.587 48.9777 103.556 43.6212 97.7638 40.3182C91.9684 37.0136 82.6041 37.0136 76.8459 40.3182C71.0886 43.6229 71.1192 48.9793 76.9147 52.284ZM100.607 38.686C107.981 42.8901 108.02 49.7088 100.692 53.9146C93.3661 58.1196 81.4465 58.1196 74.0728 53.9146C66.6966 49.7088 66.6577 42.891 73.9834 38.686C81.3124 34.4801 93.2312 34.4801 100.607 38.686Z" fill="#DC8B64"/>
<path d="M76.8335 39.7556C74.674 40.9953 73.3292 42.5229 72.7968 44.1225C72.8001 42.8754 72.8034 41.6275 72.8076 40.3803C73.34 38.7808 74.6847 37.2523 76.8443 36.0134C82.6016 32.7088 91.9659 32.7088 97.7613 36.0134C100.658 37.6653 102.114 39.83 102.125 41.9955C102.122 43.2426 102.118 44.4897 102.114 45.7376C102.103 43.5721 100.647 41.4075 97.7506 39.7556C91.9551 36.4509 82.5909 36.4509 76.8335 39.7556Z" fill="#DC8B64"/>
<path d="M102.125 42.0364L102.114 45.7785C102.109 47.9301 100.677 50.0784 97.816 51.7197C92.0578 55.0243 82.6944 55.0243 76.9014 51.7213C73.985 50.0588 72.5285 47.8761 72.5351 45.6968L72.5459 41.9546C72.5393 44.134 73.9958 46.3166 76.9121 47.9792C82.7051 51.2822 92.0686 51.2822 97.8268 47.9775C100.688 46.3363 102.119 44.1871 102.125 42.0364Z" fill="#DC8B64"/>
<path d="M97.7614 36.0134C103.554 39.3164 103.584 44.6728 97.8268 47.9775C92.0686 51.2821 82.7052 51.2821 76.9122 47.9791C71.1168 44.6745 71.0861 39.318 76.8443 36.0134C82.6017 32.7087 91.966 32.7087 97.7614 36.0134Z" fill="#DC8B64"/>
<path d="M76.8443 38.1004C82.6017 34.7957 91.9659 34.7957 97.7614 38.1004C100.203 39.4931 101.618 41.2505 102.009 43.0659C102.552 40.5594 101.136 37.9376 97.7614 36.0134C91.9659 32.7088 82.6017 32.7088 76.8443 36.0134C73.5139 37.9246 72.1245 40.5218 72.6619 43.0111C73.0503 41.2161 74.4413 39.4791 76.8443 38.1004Z" fill="#916049"/>
<path d="M106.16 42.0469L106.15 45.7899C106.142 48.5278 104.319 51.2625 100.679 53.3519C93.3529 57.5569 81.4341 57.5569 74.0604 53.3527C70.3475 51.2355 68.4943 48.4575 68.5018 45.6836L68.5126 41.9414C68.5043 44.7153 70.3583 47.4933 74.0712 49.6097C81.4449 53.8147 93.3637 53.8147 100.689 49.6097C104.33 47.5203 106.153 44.7857 106.16 42.0469Z" fill="#916049"/>
<path d="M76.9121 47.9792C82.7051 51.2822 92.0686 51.2822 97.8267 47.9775C103.584 44.6729 103.553 39.3165 97.7613 36.0135C91.9659 32.7088 82.6016 32.7088 76.8442 36.0135C71.0861 39.3181 71.1167 44.6745 76.9121 47.9792ZM100.605 34.3812C107.979 38.5854 108.017 45.404 100.689 49.6098C93.3636 53.8148 81.4449 53.8148 74.0712 49.6098C66.6942 45.404 66.6552 38.5862 73.9817 34.3812C81.3099 30.1753 93.2287 30.1753 100.605 34.3812Z" fill="#DC8B64"/>
<path d="M76.9651 33.7293C74.8064 34.9683 73.4609 36.4967 72.9284 38.0963C72.9317 36.8483 72.9359 35.6012 72.9392 34.3541C73.4716 32.7537 74.8172 31.2261 76.9759 29.9872C82.7332 26.6825 92.0975 26.6825 97.893 29.9872C100.789 31.6383 102.245 33.8038 102.258 35.9684C102.253 37.2163 102.25 38.4634 102.247 39.7114C102.234 37.5459 100.779 35.3804 97.8822 33.7293C92.0867 30.4247 82.7225 30.4247 76.9651 33.7293Z" fill="#DC8B64"/>
<path d="M102.258 36.0094L102.247 39.7516C102.24 41.9031 100.808 44.0522 97.9476 45.6935C92.1903 48.9982 82.826 48.9982 77.033 45.6952C74.1166 44.0326 72.6601 41.85 72.6668 39.6706L72.6776 35.9285C72.6709 38.1078 74.1274 40.2905 77.0438 41.953C82.8368 45.256 92.2011 45.256 97.9584 41.9514C100.819 40.3093 102.251 38.161 102.258 36.0094Z" fill="#DC8B64"/>
<path d="M97.893 29.9872C103.686 33.2902 103.717 38.6467 97.9584 41.9513C92.2011 45.2559 82.8368 45.2559 77.0438 41.9529C71.2484 38.6483 71.2186 33.2919 76.9759 29.9872C82.7333 26.6826 92.0976 26.6826 97.893 29.9872Z" fill="#DC8B64"/>
<path d="M76.9759 32.0742C82.7333 28.7695 92.0976 28.7695 97.893 32.0742C100.336 33.466 101.749 35.2242 102.141 37.0397C102.683 34.5332 101.268 31.9114 97.893 29.9872C92.0976 26.6826 82.7333 26.6826 76.9759 29.9872C73.6464 31.8983 72.2569 34.4956 72.7935 36.9849C73.1827 35.1899 74.573 33.4529 76.9759 32.0742Z" fill="#916049"/>
<path d="M106.293 36.0208L106.282 39.763C106.274 42.5017 104.452 45.2364 100.81 47.3258C93.4845 51.5308 81.5657 51.5308 74.192 47.3258C70.4799 45.2094 68.626 42.4314 68.6342 39.6575L68.645 35.9153C68.6367 38.6884 70.4907 41.4672 74.2028 43.5836C81.5765 47.7887 93.4953 47.7878 100.821 43.5836C104.462 41.4942 106.284 38.7596 106.293 36.0208Z" fill="#916049"/>
<path d="M77.0438 41.9529C82.8368 45.2559 92.2011 45.2559 97.9584 41.9513C103.717 38.6467 103.686 33.2902 97.893 29.9872C92.0976 26.6826 82.7333 26.6826 76.9759 29.9872C71.2186 33.2918 71.2484 38.6483 77.0438 41.9529ZM100.737 28.3549C108.111 32.5591 108.15 39.3777 100.821 43.5836C93.4953 47.7878 81.5765 47.7886 74.2028 43.5836C66.8267 39.3777 66.7877 32.5591 74.1134 28.3549C81.4415 24.1491 93.3603 24.1491 100.737 28.3549Z" fill="#DC8B64"/>
<path d="M104.109 32.0007L104.098 35.7436C104.093 37.8944 102.66 40.0435 99.8 41.6848C94.0418 44.9894 84.6775 44.9894 78.8854 41.6864C75.969 40.0239 74.5125 37.8412 74.5183 35.6618L74.5291 31.9197C74.5233 34.0991 75.9798 36.2817 78.8961 37.9443C84.6883 41.2473 94.0526 41.2473 99.8107 37.9426C102.671 36.3013 104.103 34.1522 104.109 32.0007Z" fill="#DC8B64"/>
<path d="M6.47942 36.5924C4.32073 37.8314 2.97516 39.3598 2.44273 40.9594C2.44605 39.7114 2.45018 38.4643 2.45349 37.2172C2.98592 35.6168 4.33148 34.0892 6.49018 32.8503C12.2475 29.5456 21.6119 29.5456 27.4073 32.8503C30.3038 34.5014 31.7595 36.6669 31.7719 38.8315C31.7677 40.0794 31.7644 41.3265 31.7611 42.5745C31.7487 40.409 30.293 38.2435 27.3965 36.5924C21.6011 33.2878 12.2368 33.2878 6.47942 36.5924Z" fill="#DC8B64"/>
<path d="M27.4073 32.8503C33.2003 36.1533 33.2309 41.5097 27.4728 44.8144C21.7154 48.119 12.3511 48.119 6.55814 44.816C0.762698 41.5114 0.732863 36.1549 6.49022 32.8503C12.2476 29.5456 21.6119 29.5456 27.4073 32.8503Z" fill="#DC8B64"/>
<path d="M6.49023 34.9373C12.2476 31.6326 21.6119 31.6326 27.4073 34.9373C29.8501 36.3291 31.2635 38.0873 31.6552 39.9028C32.1975 37.3963 30.7824 34.7745 27.4073 32.8503C21.6119 29.5457 12.2476 29.5457 6.49023 32.8503C3.16068 34.7614 1.77125 37.3587 2.30782 39.848C2.697 38.053 4.08726 36.316 6.49023 34.9373Z" fill="#916049"/>
<path d="M8.33098 32.5837C6.17228 33.8226 4.82672 35.3511 4.29429 36.9507C4.29843 35.7035 4.30177 34.4556 4.30508 33.2085C4.83751 31.6089 6.18308 30.0805 8.34177 28.8416C14.1 25.5369 23.4642 25.5369 29.2589 28.8416C32.1553 30.4927 33.6119 32.6581 33.6234 34.8236C33.6201 36.0707 33.616 37.3178 33.6127 38.5658C33.6011 36.4003 32.1446 34.2356 29.2481 32.5837C23.4535 29.2791 14.0892 29.2791 8.33098 32.5837Z" fill="#DC8B64"/>
<path d="M33.6234 34.8638L33.6126 38.6067C33.6069 40.7575 32.1743 42.9066 29.3143 44.5479C23.5561 47.8525 14.1918 47.8525 8.39967 44.5495C5.48332 42.887 4.02682 40.7043 4.03262 38.5249L4.04337 34.7828C4.03758 36.9622 5.49408 39.1448 8.41043 40.8074C14.2026 44.1104 23.5669 44.1104 29.325 40.8057C32.1851 39.1644 33.6176 37.0153 33.6234 34.8638Z" fill="#DC8B64"/>
<path d="M29.2588 28.8416C35.0517 32.1446 35.0824 37.501 29.325 40.8056C23.5668 44.1103 14.2025 44.1103 8.41039 40.8073C2.61495 37.5026 2.58435 32.1462 8.3417 28.8416C14.0999 25.5369 23.4642 25.5369 29.2588 28.8416Z" fill="#DC8B64"/>
<path d="M8.34174 30.9285C14.0999 27.6238 23.4642 27.6238 29.2588 30.9285C31.7015 32.3211 33.1158 34.0785 33.5075 35.894C34.049 33.3875 32.6339 30.7657 29.2588 28.8415C23.4642 25.5369 14.0999 25.5369 8.34174 28.8415C5.01219 30.7526 3.62274 33.3499 4.16014 35.8392C4.54849 34.0442 5.9396 32.3072 8.34174 30.9285Z" fill="#916049"/>
<path d="M37.6584 34.875L37.6477 38.6172C37.6402 41.3559 35.8177 44.0906 32.1768 46.18C24.8511 50.385 12.9315 50.385 5.55783 46.18C1.84574 44.0636 -0.00825278 41.2856 2.76135e-05 38.5117L0.0107824 34.7695C0.00250203 37.5434 1.85649 40.3214 5.56859 42.4378C12.9423 46.6428 24.8611 46.6428 32.1876 42.4378C35.8285 40.3484 37.651 37.6138 37.6584 34.875Z" fill="#916049"/>
<path d="M8.41044 40.8073C14.2026 44.1103 23.5669 44.1103 29.3251 40.8056C35.0824 37.501 35.0518 32.1446 29.2588 28.8415C23.4642 25.5369 14.0999 25.5369 8.34175 28.8415C2.58439 32.1462 2.615 37.5026 8.41044 40.8073ZM32.1031 27.2093C39.4768 31.4135 39.5158 38.2321 32.1876 42.4379C24.8611 46.6429 12.9423 46.6429 5.56862 42.4379C-1.80755 38.2321 -1.84647 31.4143 5.47919 27.2093C12.8082 23.0034 24.727 23.0034 32.1031 27.2093Z" fill="#DC8B64"/>
<path d="M28.8967 39.1518C26.0805 40.7677 24.3259 42.7606 23.6312 44.8476C23.6362 43.2202 23.6403 41.5937 23.6453 39.9663C24.34 37.8793 26.0946 35.8864 28.9108 34.2705C36.4211 29.96 48.6355 29.96 56.1947 34.2696C59.973 36.4245 61.8717 39.2483 61.8874 42.0729C61.8825 43.6994 61.8783 45.3268 61.8734 46.9542C61.8576 44.1296 59.9589 41.3058 56.1806 39.1518C48.6214 34.8413 36.407 34.8413 28.8967 39.1518Z" fill="#CBEDDF"/>
<path d="M61.8875 42.126L61.8734 47.0073C61.8659 49.8131 59.9979 52.6157 56.2667 54.7574C48.7564 59.0679 36.542 59.0679 28.9853 54.7599C25.1813 52.5903 23.2818 49.7436 23.2901 46.901L23.3042 42.0197C23.2959 44.8623 25.1954 47.709 28.9994 49.8786C36.5553 54.1866 48.7697 54.1866 56.28 49.8761C60.012 47.7343 61.8792 44.9318 61.8875 42.126Z" fill="#CBEDDF"/>
<path d="M56.1947 34.2696C63.7505 38.5784 63.7911 45.5655 56.28 49.876C48.7696 54.1865 36.5553 54.1865 28.9994 49.8785C21.4402 45.568 21.4005 38.5809 28.9108 34.2704C36.4211 29.9599 48.6355 29.9599 56.1947 34.2696Z" fill="#CBEDDF"/>
<path d="M28.9108 36.9921C36.4211 32.6815 48.6355 32.6815 56.1946 36.9921C59.3809 38.8083 61.225 41.1014 61.7359 43.4697C62.443 40.1994 60.5973 36.7802 56.1946 34.2697C48.6355 29.96 36.4211 29.96 28.9108 34.2705C24.5677 36.7631 22.7551 40.1503 23.4557 43.3985C23.9624 41.0564 25.7766 38.7912 28.9108 36.9921Z" fill="#A7AAA9"/>
<path d="M67.1513 42.1408L67.1372 47.0221C67.1273 50.5942 64.75 54.1605 60.0003 56.887C50.4448 62.371 34.8975 62.371 25.279 56.887C20.4375 54.1261 18.0188 50.5017 18.0295 46.8839L18.0436 42.0026C18.0328 45.6204 20.4516 49.2448 25.2931 52.0056C34.9116 57.4897 50.4589 57.4897 60.0144 52.0056C64.7641 49.2792 67.1405 45.7128 67.1513 42.1408Z" fill="#A7AAA9"/>
<path d="M28.9994 49.8785C36.5553 54.1865 48.7697 54.1865 56.28 49.876C63.7911 45.5655 63.7505 38.5784 56.1947 34.2696C48.6355 29.9599 36.4211 29.9599 28.9108 34.2704C21.4005 38.5809 21.4402 45.568 28.9994 49.8785ZM59.9043 32.1409C69.5228 37.6249 69.5733 46.5191 60.0144 52.0055C50.4589 57.4895 34.9116 57.4895 25.2931 52.0055C15.6713 46.5191 15.6208 37.6257 25.1763 32.1409C34.736 26.6544 50.2825 26.6544 59.9043 32.1409Z" fill="#CBEDDF"/>
<path d="M28.8967 33.6342C26.0805 35.2501 24.3259 37.2431 23.6312 39.33C23.6362 37.7026 23.6403 36.0761 23.6453 34.4487C24.34 32.3617 26.0946 30.3688 28.9108 28.7529C36.4211 24.4424 48.6355 24.4424 56.1947 28.7529C59.973 30.9069 61.8717 33.7307 61.8874 36.5553C61.8825 38.1827 61.8783 39.8092 61.8734 41.4366C61.8576 38.612 59.9589 35.7882 56.1806 33.6342C48.6214 29.3237 36.407 29.3237 28.8967 33.6342Z" fill="#CBEDDF"/>
<path d="M61.8875 36.6085L61.8734 41.4898C61.8659 44.2964 59.9979 47.0981 56.2667 49.2399C48.7564 53.5504 36.542 53.5504 28.9853 49.2424C25.1813 47.0736 23.2818 44.2261 23.2901 41.3835L23.3042 36.5022C23.2959 39.3448 25.1954 42.1915 28.9994 44.361C36.5553 48.6691 48.7697 48.6691 56.28 44.3586C60.012 42.2168 61.8792 39.4143 61.8875 36.6085Z" fill="#CBEDDF"/>
<path d="M56.1947 28.7529C63.7505 33.0609 63.7911 40.048 56.28 44.3585C48.7696 48.669 36.5553 48.669 28.9994 44.361C21.4402 40.0505 21.4005 33.0634 28.9108 28.7529C36.4211 24.4424 48.6355 24.4424 56.1947 28.7529Z" fill="#CBEDDF"/>
<path d="M28.9108 31.4745C36.4211 27.164 48.6355 27.164 56.1946 31.4745C59.3809 33.2908 61.225 35.5838 61.7359 37.9521C62.443 34.6818 60.5973 31.2627 56.1946 28.7529C48.6355 24.4424 36.4211 24.4424 28.9108 28.7529C24.5677 31.2455 22.7551 34.6328 23.4557 37.881C23.9624 35.5389 25.7766 33.2736 28.9108 31.4745Z" fill="#A7AAA9"/>
<path d="M67.1513 36.6232L67.1372 41.5046C67.1273 45.0766 64.75 48.6438 60.0003 51.3694C50.4448 56.8534 34.8975 56.8534 25.279 51.3694C20.4375 48.6086 18.0188 44.9842 18.0295 41.3664L18.0436 36.485C18.0328 40.1029 20.4516 43.7273 25.2931 46.4881C34.9116 51.9721 50.4589 51.9721 60.0144 46.4881C64.7641 43.7624 67.1405 40.1953 67.1513 36.6232Z" fill="#A7AAA9"/>
<path d="M28.9994 44.3611C36.5553 48.6691 48.7697 48.6691 56.28 44.3586C63.7911 40.0481 63.7505 33.061 56.1947 28.753C48.6355 24.4425 36.4211 24.4425 28.9108 28.753C21.4005 33.0635 21.4402 40.0505 28.9994 44.3611ZM59.9043 26.6235C69.5228 32.1075 69.5733 41.0016 60.0144 46.4881C50.4589 51.9721 34.9116 51.9721 25.2931 46.4881C15.6713 41.0016 15.6208 32.1083 25.1763 26.6235C34.736 21.137 50.2825 21.137 59.9043 26.6235Z" fill="#CBEDDF"/>
<path d="M27.7946 28.1167C24.9776 29.7326 23.223 31.7255 22.5291 33.8125C22.5332 32.1851 22.5382 30.5585 22.5432 28.9312C23.2371 26.8442 24.9917 24.8513 27.8087 23.2353C35.319 18.9248 47.5334 18.9248 55.0925 23.2353C58.8709 25.3894 60.7696 28.2132 60.7853 31.0378C60.7803 32.6651 60.7754 34.2917 60.7712 35.9191C60.7555 33.0945 58.8568 30.2707 55.0785 28.1167C47.5193 23.8062 35.3049 23.8062 27.7946 28.1167Z" fill="#CBEDDF"/>
<path d="M60.7853 31.0909L60.7713 35.9722C60.763 38.7788 58.8957 41.5814 55.1638 43.7223C47.6535 48.0328 35.4391 48.0328 27.8832 43.7247C24.0792 41.556 22.1797 38.7085 22.1871 35.8659L22.2012 30.9846C22.1929 33.8272 24.0933 36.6747 27.8973 38.8434C35.4531 43.1515 47.6675 43.1515 55.1778 38.841C58.9098 36.6992 60.777 33.8975 60.7853 31.0909Z" fill="#CBEDDF"/>
<path d="M55.0926 23.2353C62.6484 27.5434 62.6882 34.5305 55.1778 38.841C47.6675 43.1515 35.4531 43.1515 27.8973 38.8435C20.3381 34.533 20.2975 27.5459 27.8087 23.2353C35.319 18.9248 47.5334 18.9248 55.0926 23.2353Z" fill="#CBEDDF"/>
<path d="M27.8086 25.9569C35.3189 21.6464 47.5333 21.6464 55.0925 25.9569C58.278 27.7732 60.1229 30.0671 60.6338 32.4346C61.3409 29.1643 59.4952 25.7451 55.0925 23.2354C47.5333 18.9249 35.3189 18.9249 27.8086 23.2354C23.4647 25.728 21.6522 29.1152 22.3535 32.3634C22.8595 30.0213 24.6737 27.7561 27.8086 25.9569Z" fill="#A7AAA9"/>
<path d="M66.0483 31.1057L66.0351 35.987C66.0243 39.5591 63.647 43.1262 58.8982 45.8519C49.3418 51.3359 33.7954 51.3359 24.1769 45.8519C19.3345 43.0911 16.9166 39.4667 16.9266 35.8488L16.9406 30.9675C16.9307 34.5854 19.3486 38.2098 24.191 40.9706C33.8095 46.4546 49.3559 46.4546 58.9123 40.9706C63.6611 38.2449 66.0384 34.6778 66.0483 31.1057Z" fill="#A7AAA9"/>
<path d="M27.8973 38.8435C35.4531 43.1516 47.6675 43.1516 55.1779 38.8411C62.6882 34.5305 62.6484 27.5435 55.0926 23.2354C47.5334 18.9249 35.319 18.9249 27.8087 23.2354C20.2975 27.5459 20.3381 34.533 27.8973 38.8435ZM58.8022 21.1059C68.4207 26.5899 68.4712 35.4841 58.9123 40.9705C49.3559 46.4546 33.8095 46.4546 24.191 40.9705C14.5692 35.4841 14.5187 26.5908 24.0742 21.1059C33.634 15.6195 49.1804 15.6195 58.8022 21.1059Z" fill="#CBEDDF"/>
<path d="M29.9989 22.5991C27.1827 24.215 25.4281 26.208 24.7334 28.2949C24.7383 26.6675 24.7433 25.041 24.7475 23.4136C25.4422 21.3266 27.1968 19.3337 30.013 17.7178C37.5233 13.4073 49.7377 13.4073 57.2977 17.7178C61.0752 19.8718 62.9747 22.6956 62.9896 25.5202C62.9855 27.1476 62.9805 28.7741 62.9763 30.4015C62.9606 27.5769 61.0611 24.7531 57.2836 22.5991C49.7236 18.2886 37.5092 18.2886 29.9989 22.5991Z" fill="#CBEDDF"/>
<path d="M62.9904 25.5734L62.9763 30.4547C62.968 33.2613 61.1 36.0638 57.3688 38.2047C49.8585 42.5152 37.6441 42.5152 30.0883 38.2072C26.2843 36.0385 24.3839 33.191 24.3922 30.3484L24.4063 25.467C24.398 28.3096 26.2984 31.1571 30.1024 33.3259C37.6582 37.6339 49.8726 37.6339 57.3829 33.3234C61.1141 31.1825 62.9821 28.38 62.9904 25.5734Z" fill="#CBEDDF"/>
<path d="M57.2977 17.7179C64.8535 22.0259 64.8933 29.013 57.383 33.3235C49.8726 37.634 37.6582 37.634 30.1024 33.326C22.5424 29.0155 22.5026 22.0284 30.0129 17.7179C37.5233 13.4074 49.7377 13.4074 57.2977 17.7179Z" fill="#CBEDDF"/>
<path d="M30.0129 20.4393C37.5232 16.1288 49.7376 16.1288 57.2976 20.4393C60.4831 22.2556 62.3271 24.5495 62.838 26.917C63.5451 23.6475 61.6994 20.2275 57.2976 17.7178C49.7376 13.4073 37.5232 13.4073 30.0129 17.7178C25.6698 20.2104 23.8572 23.5984 24.5578 26.8458C25.0645 24.5037 26.8788 22.2385 30.0129 20.4393Z" fill="#A7AAA9"/>
<path d="M68.2534 25.5882L68.2393 30.4695C68.2294 34.0415 65.8521 37.6087 61.1025 40.3343C51.5469 45.8184 36.0005 45.8184 26.382 40.3343C21.5396 37.5735 19.1217 33.9491 19.1316 30.3313L19.1457 25.45C19.1358 29.0678 21.5537 32.6922 26.396 35.453C36.0137 40.9371 51.561 40.9371 61.1165 35.453C65.8662 32.7274 68.2435 29.1602 68.2534 25.5882Z" fill="#A7AAA9"/>
<path d="M30.1024 33.3259C37.6582 37.634 49.8726 37.634 57.3829 33.3235C64.8932 29.013 64.8535 22.0259 57.2976 17.7178C49.7376 13.4073 37.5232 13.4073 30.0129 17.7178C22.5026 22.0283 22.5424 29.0154 30.1024 33.3259ZM61.0073 15.5883C70.6249 21.0732 70.6763 29.9665 61.1165 35.453C51.561 40.937 36.0137 40.937 26.3961 35.453C16.7742 29.9665 16.7237 21.0732 26.2793 15.5883C35.8382 10.1019 51.3854 10.1019 61.0073 15.5883Z" fill="#CBEDDF"/>
</svg>
