<svg width="25" height="25" viewBox="0 0 25 25" fill="none" xmlns="http://www.w3.org/2000/svg">
<path d="M22.9939 16.4096C21.4634 16.4096 19.9605 16.1702 18.5363 15.6996C17.8385 15.4616 16.9806 15.6799 16.5547 16.1174L13.7437 18.2394C10.4838 16.4992 8.47569 14.4918 6.75929 11.2563L8.81886 8.51855C9.35395 7.98418 9.54587 7.20358 9.31593 6.47116C8.84327 5.03952 8.60317 3.53737 8.60317 2.00612C8.60323 0.899935 7.7033 0 6.59718 0H2.00605C0.899933 0 0 0.899935 0 2.00605C0 14.6851 10.3149 25 22.9939 25C24.1001 25 25 24.1001 25 22.9939V18.4156C24.9999 17.3096 24.1 16.4096 22.9939 16.4096Z" fill="#EAB14D"/>
</svg>
