<svg width="40" height="40" viewBox="0 0 40 40" fill="none" xmlns="http://www.w3.org/2000/svg">
<circle cx="20" cy="20" r="20" fill="#EAB14D"/>
<path d="M27.4754 22.4713C26.3121 22.4713 25.17 22.2894 24.0876 21.9317C23.5573 21.7508 22.9053 21.9168 22.5816 22.2492L20.4452 23.8619C17.9677 22.5394 16.4415 21.0138 15.1371 18.5548L16.7023 16.4741C17.109 16.068 17.2549 15.4747 17.0801 14.9181C16.7209 13.83 16.5384 12.6884 16.5384 11.5247C16.5385 10.684 15.8545 10 15.0139 10H11.5246C10.6839 10 10 10.684 10 11.5246C10 21.1607 17.8394 29 27.4754 29C28.3161 29 29 28.316 29 27.4754V23.9959C29 23.1553 28.316 22.4713 27.4754 22.4713Z" fill="white"/>
</svg>
