<?xml version="1.0"?>
<svg xmlns="http://www.w3.org/2000/svg" height="512px" viewBox="0 0 64 64" width="512px" class=""><g><g id="Tow_Truck" data-name="Tow Truck"><path d="m39 42v9h-22a5 5 0 0 0 -10 0h-3a1 1 0 0 1 -1-1v-8z" fill="#cc7400" data-original="#CC7400" class="active-path" style="fill:#EAB14D" data-old_color="#cc7400"/><circle cx="8" cy="38" fill="#57565c" r="2" data-original="#57565C" class=""/><circle cx="26" cy="38" fill="#57565c" r="2" data-original="#57565C" class=""/><path d="m16 26v6h-9l2.45-4.89a2 2 0 0 1 1.79-1.11z" fill="#d1d3d4" data-original="#D1D3D4"/><path d="m27 32h-11v-6h4z" fill="#e6e7e8" data-original="#E6E7E8" class=""/><circle cx="49" cy="51" fill="#57565c" r="5" data-original="#57565C" class=""/><path d="m55 40v2a1 1 0 0 0 1 1h5v6a2.006 2.006 0 0 1 -2 2h-5a5 5 0 0 0 -10 0h-5v-27h4v11h17.84a3.773 3.773 0 0 1 .16 1.11v2.89h-5a1 1 0 0 0 -1 1z" fill="#ee8700" data-original="#EE8700" class="" style="fill:#EAB14D" data-old_color="#ee8700"/><path d="m61 39v4h-5a1 1 0 0 1 -1-1v-2a1 1 0 0 1 1-1z" fill="#e6e7e8" data-original="#E6E7E8" class=""/><path d="m60.84 35h-17.84v-11h10.81a2 2 0 0 1 1.76 1.05l4.86 9a3.793 3.793 0 0 1 .41.95z" fill="#e6e7e8" data-original="#E6E7E8" class=""/><path d="m39 28v14h-4v-15.86z" fill="#787680" data-original="#787680" class=""/><path d="m39.9 24h-.9v4l-4-1.86-28-13.06-.63-.29 1.69-3.63z" fill="#898890" data-original="#898890" class=""/><path d="m39 28v2l-4-1.86v-2z" fill="#57565c" data-original="#57565C" class=""/><path d="m19 51h-2a5 5 0 0 0 -10 0h-2a7 7 0 0 1 14 0z" fill="#aa6100" data-original="#AA6100" class="" style="fill:#E49542" data-old_color="#aa6100"/><circle cx="12" cy="51" fill="#57565c" r="5" data-original="#57565C" class=""/><path d="m31 34v4h-3a2 2 0 0 0 -4 0h-14a2 2 0 0 0 -4 0h-3v-5a1 1 0 0 1 1-1h25.01z" fill="#3d9ae2" data-original="#3D9AE2" class="" style="fill:#F57877" data-old_color="#3d9ae2"/><path d="m11 38h-1a2 2 0 0 0 -4 0h-1a3 3 0 0 1 6 0z" fill="#1e81ce" data-original="#1E81CE"/><path d="m29 38h-1a2 2 0 0 0 -4 0h-1a3 3 0 0 1 6 0z" fill="#1e81ce" data-original="#1E81CE"/><path d="m56 51h-2a5 5 0 0 0 -10 0h-2a7 7 0 0 1 14 0z" fill="#cc7400" data-original="#CC7400" class="active-path" style="fill:#EAB14D" data-old_color="#cc7400"/><path d="m42 38h4v2h-4z" data-original="#000000" class="" style="fill:#000000" data-old_color="#000000"/><path d="m11 50h2v2h-2z" data-original="#000000" class="" style="fill:#000000" data-old_color="#000000"/><path d="m48 50h2v2h-2z" data-original="#000000" class="" style="fill:#000000" data-old_color="#000000"/><path d="m61.31 33.574-4.863-9a3 3 0 0 0 -2.64-1.574h-13.686l-31.639-14.746a.993.993 0 0 0 -.764-.033 1 1 0 0 0 -.565.517l-1.69 3.63a1 1 0 0 0 .485 1.332l.052.021v5.279a1 1 0 0 0 1 1 1 1 0 1 1 -1 1h-2a3 3 0 1 0 4-2.829v-3.518l26 12.119v14.228h-31a1 1 0 0 0 -1 1v8a2 2 0 0 0 2 2h2.09a5.993 5.993 0 0 0 11.82 0h25.18a5.993 5.993 0 0 0 11.82 0h4.09a3 3 0 0 0 3-3v-12.892a4.959 4.959 0 0 0 -.69-2.534zm-6.623-8.049 4.58 8.475h-15.267v-9h9.807a1 1 0 0 1 .88.525zm-46.143-15.036 29.456 13.729v2.213l-30.3-14.125zm27.456 17.216 2 .932v12.363h-2zm-24 27.295a4 4 0 1 1 4-4 4 4 0 0 1 -4 4zm0-10a6.006 6.006 0 0 0 -5.91 5h-2.09v-7h34v7h-20.09a6.006 6.006 0 0 0 -5.91-5zm37 10a4 4 0 1 1 4-4 4 4 0 0 1 -4 4zm10-5h-4.09a5.993 5.993 0 0 0 -11.82 0h-3.09v-25h2v10a1 1 0 0 0 1 1h16.985c0 .036.015.071.015.108v1.892h-4a2 2 0 0 0 -2 2v2a2 2 0 0 0 2 2h4v2h-3v2h3v1a1 1 0 0 1 -1 1zm1-10v2h-4v-2z" data-original="#000000" class="" style="fill:#000000" data-old_color="#000000"/><path d="m10.816 39h12.368a2.982 2.982 0 0 0 5.632 0h2.184a1 1 0 0 0 1-1v-4a1 1 0 0 0 -.291-.706l-1.991-2a1 1 0 0 0 -.709-.294h-1.639l-6.719-5.759a1 1 0 0 0 -.651-.241h-8.764a2.983 2.983 0 0 0 -2.683 1.658l-2.171 4.342h-2.382a2 2 0 0 0 -2 2v5a1 1 0 0 0 1 1h2.184a2.982 2.982 0 0 0 5.632 0zm15.184 0a1 1 0 1 1 1-1 1 1 0 0 1 -1 1zm-1.7-8h-7.3v-4h2.63zm-13.958-3.447a.994.994 0 0 1 .894-.553h3.764v4h-6.382zm-6.342 5.447h24.594l1.406 1.413v2.587h-1.184a2.982 2.982 0 0 0 -5.632 0h-12.368a2.982 2.982 0 0 0 -5.632 0h-1.184zm4 6a1 1 0 1 1 1-1 1 1 0 0 1 -1 1z" data-original="#000000" class="" style="fill:#000000" data-old_color="#000000"/></g></g> </svg>
