<svg width="100" height="100" viewBox="0 0 100 100" fill="none" xmlns="http://www.w3.org/2000/svg">
<path d="M65.6469 23.8618C66.3918 23.8618 67.0344 23.303 67.1219 22.5452L69.5284 1.66045C69.6225 0.845021 69.0375 0.107521 68.2217 0.0133801C67.4104 -0.0803699 66.6688 0.5042 66.5746 1.32022L64.168 22.205C64.0741 23.0204 64.659 23.7579 65.4748 23.8521C65.5325 23.8585 65.5899 23.8618 65.6469 23.8618Z" fill="#2B4D66"/>
<path d="M73.2499 37.5206C73.9073 37.5206 74.5085 37.0811 74.6856 36.4157L83.8756 1.86931C84.0865 1.07596 83.6145 0.261512 82.8211 0.050576C82.0281 -0.161141 81.2137 0.311707 81.0024 1.10506L71.8124 35.6515C71.6015 36.4448 72.0735 37.2591 72.8669 37.4702C72.9948 37.5044 73.1235 37.5206 73.2499 37.5206Z" fill="#2B4D66"/>
<path d="M34.3532 23.8602C34.4101 23.8602 34.4675 23.8569 34.5253 23.8502C35.3409 23.7561 35.9259 23.0186 35.832 22.2032L33.4255 1.31839C33.3312 0.502765 32.5947 -0.0825864 31.7785 0.0115542C30.9628 0.105695 30.3779 0.843195 30.4716 1.65862L32.8783 22.5434C32.9658 23.3014 33.6085 23.8602 34.3532 23.8602Z" fill="#2B4D66"/>
<path d="M26.75 37.5228C26.8766 37.5228 27.0051 37.5066 27.133 37.4724C27.9263 37.2613 28.3986 36.4471 28.1875 35.6537L18.9977 1.10729C18.7866 0.313938 17.9714 -0.157934 17.179 0.0528069C16.3856 0.263743 15.9134 1.07819 16.1245 1.87154L25.3143 36.418C25.4914 37.0834 26.0926 37.5228 26.75 37.5228Z" fill="#2B4D66"/>
<path d="M46.6323 75.4826V68.0026H53.376V78.3921C53.376 80.2544 51.8664 81.764 50.0041 81.764C46.8356 81.764 44.2579 84.3417 44.2579 87.51C44.2579 90.6784 46.8356 93.2561 50.0041 93.2561C53.1724 93.2561 55.7501 90.6784 55.7501 87.51C55.7501 86.502 56.2011 85.5472 56.9794 84.9063C57.7576 84.2659 58.7812 84.0075 59.7708 84.2011L63.2161 84.8765C65.0436 85.2349 66.2346 87.0065 65.8762 88.834C65.5182 90.6616 63.746 91.8516 61.9187 91.4942L61.847 91.4801C60.1845 96.4268 55.5037 99.9996 50.0041 99.9996C43.117 99.9996 37.5142 94.3967 37.5142 87.5098C37.5144 81.7909 41.3778 76.9574 46.6323 75.4826Z" fill="#365E7D"/>
<path d="M53.3762 68.0026V75.6321H46.14C46.3027 75.5789 46.4668 75.5291 46.6324 75.4827V68.0026H53.3762Z" fill="#2B4D66"/>
<path d="M24.6897 37.2339L39.5976 65.901H60.4103L60.8507 65.0538L61.1193 60.4109L64.4187 58.1921L68.762 49.8383L69.4018 45.2108L72.3319 42.9766L75.318 37.2339C76.2979 35.3499 76.1504 33.0759 74.9365 31.3332L68.2518 21.7422C67.1854 20.2081 65.4343 19.2956 63.5671 19.2956H48.6508L43.8481 21.0354L38.2191 19.2956H36.4404C34.5732 19.2956 32.822 20.2081 31.7556 21.7422L30.2004 23.974L29.6115 27.9174L25.916 30.1215L25.0709 31.3332C23.8573 33.0759 23.7098 35.3499 24.6897 37.2339Z" fill="#EAB14D"/>
<path d="M25.0713 31.3328L25.9164 30.121L29.6119 27.917L30.2007 23.9738L31.756 21.742C32.8224 20.2078 34.5736 19.2953 36.4407 19.2953H38.2194L39.1479 19.52L38.939 20.0139C38.189 20.4305 37.5317 21.0168 37.0276 21.742L35.4724 23.9738L31.188 30.1212L30.3429 31.3329C29.1291 33.0757 28.9816 35.3497 29.9615 37.2337L44.8694 65.9008H39.5977L24.6899 37.2337C23.71 35.3495 23.8574 33.0755 25.0713 31.3328Z" fill="#E49542"/>
<path d="M37.395 71.9671H62.6132C63.3472 71.9671 63.9423 71.372 63.9423 70.638V67.2306C63.9423 66.4964 63.3472 65.9015 62.6132 65.9015H37.395C36.6611 65.9015 36.066 66.4966 36.066 67.2306V70.638C36.066 71.372 36.6611 71.9671 37.395 71.9671Z" fill="#C3D5EF"/>
<path d="M37.395 65.9013H41.2659C40.5319 65.9013 39.9368 66.4964 39.9368 67.2304V70.6378C39.9368 71.3718 40.5319 71.9669 41.2659 71.9669H37.395C36.6608 71.9669 36.0659 71.3718 36.0659 70.6378V67.2304C36.0659 66.4964 36.661 65.9013 37.395 65.9013Z" fill="#B7C8EA"/>
<path d="M25.9164 30.1211L60.8511 65.0534L64.4189 58.1917L30.2008 23.9737L25.9164 30.1211Z" fill="#E7ECF6"/>
<path d="M30.2007 23.9737L33.3074 27.0803L31.188 30.1211L30.3429 31.3328C29.8593 32.0272 29.548 32.8065 29.4068 33.6112L25.9164 30.1209L30.2007 23.9737Z" fill="#D8E2F1"/>
<path d="M38.2194 19.2953H48.6512L72.3322 42.9764L68.7622 49.8381L38.2194 19.2953Z" fill="#E7ECF6"/>
<path d="M41.7125 19.2953C40.728 19.2953 39.7768 19.5512 38.9401 20.016L38.2194 19.2953H41.7125Z" fill="#D8E2F1"/>
</svg>
