<svg width="40" height="40" viewBox="0 0 40 40" fill="none" xmlns="http://www.w3.org/2000/svg">
<circle cx="20" cy="20" r="20" fill="#EAB14D"/>
<path d="M31.2702 22.4729C32.0024 16.2003 30.9183 12.2402 28.9629 10.4491L28.9639 10.4481C25.8078 7.3893 15.1489 6.93657 11.3729 10.5854C9.67725 12.3703 9.07997 14.9899 9.01452 18.2329C8.94906 21.4769 8.87134 27.5538 14.436 29.2023H14.4411L14.436 31.7199C14.436 31.7199 14.3982 32.7399 15.0384 32.9449C15.7707 33.1863 16.102 32.7128 18.3797 29.9444C22.1883 30.2806 25.1133 29.5104 25.4457 29.398C26.2148 29.1357 30.5665 28.5498 31.2702 22.4729ZM18.755 28.173C18.755 28.173 16.3444 31.2318 15.5948 32.0259C15.3493 32.284 15.0803 32.2601 15.0844 31.748C15.0844 31.4119 15.1028 27.5684 15.1028 27.5684C10.385 26.1925 10.6632 21.0179 10.7143 18.3109C10.7654 15.6029 11.2523 13.3851 12.6882 11.8916C16.0008 8.73082 25.3455 9.43749 27.7264 11.7146C30.6371 14.3405 29.6011 21.7589 29.6072 22.0118C29.0089 27.0844 25.4825 27.406 24.8341 27.6256C24.557 27.7193 21.9848 28.3926 18.755 28.173Z" fill="white"/>
<path d="M20.0885 12.4858C19.6947 12.4858 19.6947 13.1103 20.0885 13.1155C23.1434 13.1394 25.6593 15.3062 25.6869 19.2809C25.6869 19.7003 26.2903 19.6951 26.2852 19.2757H26.2842C26.2514 14.993 23.5044 12.5098 20.0885 12.4858Z" fill="white"/>
<path d="M24.1071 18.6221C24.0979 19.0363 24.7003 19.0561 24.7054 18.6367C24.7555 16.2752 23.3247 14.33 20.636 14.125C20.2422 14.0959 20.2013 14.7255 20.5941 14.7547C22.9259 14.9347 24.1542 16.5541 24.1071 18.6221Z" fill="white"/>
<path d="M23.4626 21.3083C22.9574 21.0107 22.443 21.1959 22.2303 21.4884L21.7854 22.0743C21.5593 22.372 21.137 22.3324 21.137 22.3324C18.0544 21.5029 17.2301 18.2204 17.2301 18.2204C17.2301 18.2204 17.1923 17.776 17.4746 17.5377L18.0309 17.0693C18.3091 16.8445 18.485 16.3033 18.2017 15.7715C17.4449 14.38 16.9366 13.9003 16.6779 13.5318C16.4058 13.1853 15.9967 13.1072 15.5713 13.3414H15.5621C14.6774 13.868 13.7089 14.8536 14.0188 15.8683C14.5475 16.9382 15.5191 20.3487 18.6159 22.9256C20.0713 24.1443 22.3745 25.3932 23.3522 25.6815L23.3614 25.6961C24.3248 26.0229 25.2616 24.9988 25.7617 24.0715V24.0642C25.9837 23.6156 25.91 23.191 25.5858 22.9131C25.0111 22.3428 24.1438 21.7132 23.4626 21.3083Z" fill="white"/>
<path d="M21.0572 16.448C22.04 16.5063 22.5166 17.0287 22.5678 18.1017C22.5862 18.5211 23.1845 18.492 23.166 18.0726C23.1006 16.6717 22.3826 15.8912 21.0899 15.8183C20.6962 15.7944 20.6593 16.424 21.0572 16.448Z" fill="white"/>
</svg>
