<svg width="75" height="93" viewBox="0 0 75 93" fill="none" xmlns="http://www.w3.org/2000/svg">
<path d="M18.3684 24.8433C18.3883 45.7133 31.0837 69.9434 46.72 78.967C62.3603 87.9866 75.022 78.3823 75.0002 57.5123C74.9804 36.6443 62.285 12.4122 46.6467 3.39055C31.0084 -5.63303 18.3467 3.97526 18.3684 24.8433Z" fill="#212034"/>
<path d="M64.3819 80.8802L46.061 91.5059L11.6871 11.6408L30.7477 0.738622L64.3819 80.8802Z" fill="#212034"/>
<path d="M0.000177918 35.4893C0.0219719 56.3573 12.7154 80.5894 28.3537 89.609C43.9921 98.6326 56.6538 89.0263 56.632 68.1563C56.6122 47.2864 43.9168 23.0562 28.2784 14.0346C12.6401 5.01304 -0.0196401 14.6174 0.000177918 35.4893Z" fill="#302D47"/>
<path d="M7.96099 40.0816C7.97684 55.0827 17.1019 72.4998 28.3434 78.983C39.583 85.4702 48.6843 78.5642 48.6704 63.5651C48.6546 48.562 39.5295 31.1449 28.2899 24.6597C17.0484 18.1745 7.94711 25.0785 7.96099 40.0816Z" fill="white"/>
<path d="M16.8805 45.8227C16.8865 53.4847 21.5476 62.3813 27.2897 65.6939C33.0318 69.0064 37.681 65.4786 37.6731 57.8185C37.6652 50.1544 33.004 41.2578 27.2639 37.9473C21.5218 34.6347 16.8726 38.1606 16.8805 45.8227Z" fill="#302D47"/>
<path d="M18.6148 46.8242C18.6207 53.2083 22.5047 60.6176 27.2881 63.377C32.0715 66.1365 35.9456 63.1993 35.9377 56.8171C35.9317 50.433 32.0497 43.0198 27.2663 40.2623C22.4809 37.5029 18.6088 40.4401 18.6148 46.8242Z" fill="#B98E83"/>
</svg>
